<?xml version="1.0" encoding="UTF-8"?>
<svg xmlns="http://www.w3.org/2000/svg" viewBox="0 0 400 500">
  <defs>
    <style>
      .uuid-2b3eaa14-caea-4f59-babf-da8aa3788259 {
        fill: #ffd650;
      }

      .uuid-c7ca1e58-1083-4f16-b1fe-881176f8dad7 {
        fill: #274910;
      }

      .uuid-9f5e424c-190a-496f-a07a-abf31e760203 {
        fill: #8fbac9;
      }

      .uuid-3ce53baa-c7a2-4520-b9c5-71c837668cbd {
        fill: #1b6d5d;
      }

      .uuid-a98c9bca-b53f-4a39-9331-662a016acb6e {
        fill: #fff;
      }

      .uuid-ebf64467-70a8-40b2-8948-f4a4e0e631ba {
        fill: #098d93;
      }

      .uuid-e8cdae81-4694-4651-8a55-3be3c54bb7c0 {
        fill: #2c600b;
      }

      .uuid-39c04839-a87e-4ff1-a251-920f20092d1f {
        fill: #cae1ef;
      }

      .uuid-61323740-971c-4394-888f-672d39b87a8c {
        fill: #5f8c42;
      }

      .uuid-3a2eaca7-a5fc-4ba1-9af9-19791376a339 {
        fill: #3aa4b5;
      }

      .uuid-05383507-136f-4e78-a81d-a3de9f5e8038 {
        fill: #d60f3b;
      }

      .uuid-8dcbd10e-5a7a-4d43-bb69-214220b51ab8 {
        fill: #498e7c;
      }

      .uuid-960a8fb8-c702-45bb-a951-681928e7b5d7 {
        fill: #ffcf1b;
      }

      .uuid-85de5cb9-8ba2-4f46-8ddb-6608b7acbb63 {
        fill: #609dad;
      }

      .uuid-65812c8f-67dc-42e5-bc99-b27a859a773c {
        fill: #e4eff7;
      }

      .uuid-b4765aec-1efa-4383-91f5-b3c842869ac9 {
        fill: #58b51c;
      }
    </style>
  </defs>
  <g id="uuid-2f15abf6-7a36-49b2-910c-e606d72524a7" data-name="Layer_2">
    <rect class="uuid-85de5cb9-8ba2-4f46-8ddb-6608b7acbb63" x="1" y="189" width="399" height="311"/>
  </g>
  <g id="uuid-0c05bd76-b99d-406d-aa8a-b4e48b82103c" data-name="Layer_1">
    <g>
      <rect class="uuid-85de5cb9-8ba2-4f46-8ddb-6608b7acbb63" x="393.48" y="239.94" width="7.02" height="7.04"/>
      <rect class="uuid-85de5cb9-8ba2-4f46-8ddb-6608b7acbb63" x="372.43" y="479.37" width="7.02" height="7.05"/>
      <g>
        <polygon class="uuid-a98c9bca-b53f-4a39-9331-662a016acb6e" points="386.46 169.51 379.45 169.51 379.45 176.56 372.43 176.56 365.41 176.56 358.39 176.56 358.39 183.6 358.39 190.64 365.41 190.64 372.43 190.64 379.45 190.64 379.45 183.6 386.46 183.6 386.46 176.56 393.48 176.56 393.48 169.51 386.46 169.51"/>
        <polygon class="uuid-65812c8f-67dc-42e5-bc99-b27a859a773c" points="393.48 155.43 393.48 162.47 386.46 162.47 379.45 162.47 372.43 162.47 372.43 169.51 365.41 169.51 358.39 169.51 351.38 169.51 351.38 176.56 351.38 183.6 358.39 183.6 358.39 176.56 365.41 176.56 372.43 176.56 379.45 176.56 379.45 169.51 386.46 169.51 393.48 169.51 400.5 169.51 400.5 162.47 400.5 155.43 393.48 155.43"/>
        <g>
          <polygon class="uuid-39c04839-a87e-4ff1-a251-920f20092d1f" points="393.48 169.51 393.48 176.56 386.46 176.56 386.46 183.6 379.45 183.6 379.45 190.64 372.43 190.64 365.41 190.64 358.39 190.64 358.39 197.68 365.41 197.68 372.43 197.68 379.45 197.68 386.46 197.68 386.46 190.64 393.48 190.64 393.48 183.6 400.5 183.6 400.5 176.56 400.5 169.51 393.48 169.51"/>
          <polygon class="uuid-39c04839-a87e-4ff1-a251-920f20092d1f" points="351.38 183.6 344.36 183.6 344.36 190.64 351.38 190.64 358.39 190.64 358.39 183.6 351.38 183.6"/>
        </g>
        <polygon class="uuid-a98c9bca-b53f-4a39-9331-662a016acb6e" points="386.46 155.43 379.45 155.43 372.43 155.43 365.41 155.43 365.41 162.47 358.39 162.47 351.38 162.47 344.36 162.47 344.36 169.51 337.34 169.51 337.34 176.56 337.34 183.6 344.36 183.6 351.38 183.6 351.38 176.56 351.38 169.51 358.39 169.51 365.41 169.51 372.43 169.51 372.43 162.47 379.45 162.47 386.46 162.47 393.48 162.47 393.48 155.43 386.46 155.43"/>
      </g>
      <rect class="uuid-2b3eaa14-caea-4f59-babf-da8aa3788259" x="323.31" y="415.99" width="7.01" height="7.05"/>
      <rect class="uuid-05383507-136f-4e78-a81d-a3de9f5e8038" x="274.18" y="472.33" width="7.02" height="7.04"/>
      <g>
        <polygon class="uuid-e8cdae81-4694-4651-8a55-3be3c54bb7c0" points="386.46 338.53 386.46 345.57 379.45 345.57 379.45 352.61 379.45 359.65 372.43 359.65 372.43 366.7 365.41 366.7 365.41 373.74 372.43 373.74 379.45 373.74 379.45 366.7 386.46 366.7 386.46 359.65 393.48 359.65 393.48 352.61 393.48 345.57 393.48 338.53 386.46 338.53"/>
        <polygon class="uuid-e8cdae81-4694-4651-8a55-3be3c54bb7c0" points="386.46 324.44 379.45 324.44 379.45 331.49 379.45 338.53 386.46 338.53 386.46 331.49 386.46 324.44"/>
        <rect class="uuid-e8cdae81-4694-4651-8a55-3be3c54bb7c0" x="372.43" y="317.4" width="7.02" height="7.04"/>
        <polygon class="uuid-e8cdae81-4694-4651-8a55-3be3c54bb7c0" points="365.41 345.57 365.41 338.53 358.39 338.53 358.39 331.49 358.39 324.44 351.38 324.44 351.38 317.4 351.38 310.36 344.36 310.36 344.36 303.32 337.34 303.32 337.34 296.27 330.32 296.27 330.32 289.23 323.31 289.23 316.29 289.23 309.27 289.23 309.27 296.27 316.29 296.27 316.29 303.32 323.31 303.32 330.32 303.32 330.32 310.36 337.34 310.36 337.34 317.4 337.34 324.44 344.36 324.44 344.36 331.49 344.36 338.53 351.38 338.53 351.38 345.57 351.38 352.61 344.36 352.61 344.36 359.65 337.34 359.65 337.34 366.7 330.32 366.7 330.32 373.74 323.31 373.74 323.31 380.78 330.32 380.78 337.34 380.78 337.34 373.74 344.36 373.74 351.38 373.74 358.39 373.74 358.39 366.7 358.39 359.65 358.39 352.61 365.41 352.61 365.41 345.57"/>
        <polygon class="uuid-e8cdae81-4694-4651-8a55-3be3c54bb7c0" points="295.24 338.53 295.24 331.49 288.22 331.49 288.22 324.44 281.2 324.44 281.2 317.4 274.18 317.4 267.17 317.4 267.17 324.44 274.18 324.44 274.18 331.49 274.18 338.53 281.2 338.53 281.2 345.57 288.22 345.57 288.22 352.61 288.22 359.65 288.22 366.7 288.22 373.74 281.2 373.74 281.2 380.78 274.18 380.78 274.18 387.82 267.17 387.82 267.17 394.87 267.17 401.91 274.18 401.91 281.2 401.91 281.2 394.87 288.22 394.87 288.22 387.82 295.24 387.82 295.24 380.78 302.25 380.78 302.25 373.74 302.25 366.7 302.25 359.65 302.25 352.61 302.25 345.57 295.24 345.57 295.24 338.53"/>
      </g>
      <polygon class="uuid-39c04839-a87e-4ff1-a251-920f20092d1f" points="323.31 77.96 316.29 77.96 316.29 70.92 309.27 70.92 302.25 70.92 295.24 70.92 288.22 70.92 281.2 70.92 281.2 63.88 274.18 63.88 267.17 63.88 260.15 63.88 260.15 70.92 260.15 77.96 267.17 77.96 274.18 77.96 274.18 85.01 281.2 85.01 288.22 85.01 295.24 85.01 295.24 77.96 302.25 77.96 309.27 77.96 309.27 85.01 316.29 85.01 323.31 85.01 330.32 85.01 330.32 77.96 323.31 77.96"/>
      <g>
        <polygon class="uuid-65812c8f-67dc-42e5-bc99-b27a859a773c" points="337.34 56.84 330.32 56.84 323.31 56.84 323.31 49.8 316.29 49.8 309.27 49.8 302.25 49.8 295.24 49.8 288.22 49.8 281.2 49.8 281.2 56.84 274.18 56.84 267.17 56.84 260.15 56.84 260.15 63.88 267.17 63.88 274.18 63.88 281.2 63.88 288.22 63.88 288.22 56.84 295.24 56.84 302.25 56.84 309.27 56.84 316.29 56.84 316.29 63.88 323.31 63.88 330.32 63.88 337.34 63.88 344.36 63.88 344.36 56.84 337.34 56.84"/>
        <rect class="uuid-65812c8f-67dc-42e5-bc99-b27a859a773c" x="253.13" y="63.88" width="7.02" height="7.04"/>
      </g>
      <g>
        <g>
          <rect class="uuid-a98c9bca-b53f-4a39-9331-662a016acb6e" x="344.36" y="56.84" width="7.02" height="7.04"/>
          <polygon class="uuid-a98c9bca-b53f-4a39-9331-662a016acb6e" points="337.34 49.8 330.32 49.8 330.32 42.75 323.31 42.75 316.29 42.75 316.29 35.71 309.27 35.71 302.25 35.71 295.24 35.71 295.24 42.75 288.22 42.75 281.2 42.75 281.2 49.8 288.22 49.8 295.24 49.8 302.25 49.8 309.27 49.8 316.29 49.8 323.31 49.8 323.31 56.84 330.32 56.84 337.34 56.84 344.36 56.84 344.36 49.8 337.34 49.8"/>
        </g>
        <polygon class="uuid-a98c9bca-b53f-4a39-9331-662a016acb6e" points="330.32 63.88 323.31 63.88 316.29 63.88 316.29 56.84 309.27 56.84 302.25 56.84 295.24 56.84 288.22 56.84 288.22 63.88 281.2 63.88 281.2 70.92 288.22 70.92 295.24 70.92 302.25 70.92 309.27 70.92 316.29 70.92 316.29 77.96 323.31 77.96 330.32 77.96 337.34 77.96 337.34 70.92 344.36 70.92 344.36 63.88 337.34 63.88 330.32 63.88"/>
        <polygon class="uuid-a98c9bca-b53f-4a39-9331-662a016acb6e" points="267.17 49.8 260.15 49.8 253.13 49.8 253.13 56.84 246.11 56.84 246.11 63.88 246.11 70.92 253.13 70.92 253.13 63.88 260.15 63.88 260.15 56.84 267.17 56.84 274.18 56.84 281.2 56.84 281.2 49.8 274.18 49.8 267.17 49.8"/>
      </g>
      <rect class="uuid-2b3eaa14-caea-4f59-babf-da8aa3788259" x="225.06" y="437.12" width="7.02" height="7.04"/>
      <polygon class="uuid-c7ca1e58-1083-4f16-b1fe-881176f8dad7" points="393.48 352.61 393.48 359.65 386.46 359.65 386.46 366.7 379.45 366.7 379.45 373.74 372.43 373.74 365.41 373.74 358.39 373.74 351.38 373.74 344.36 373.74 337.34 373.74 337.34 380.78 330.32 380.78 323.31 380.78 323.31 387.82 316.29 387.82 309.27 387.82 302.25 387.82 295.24 387.82 288.22 387.82 288.22 394.87 281.2 394.87 281.2 401.91 274.18 401.91 267.17 401.91 260.15 401.91 253.13 401.91 246.11 401.91 239.1 401.91 232.08 401.91 232.08 394.87 225.06 394.87 225.06 401.91 225.06 408.95 232.08 408.95 239.1 408.95 239.1 415.99 246.11 415.99 253.13 415.99 260.15 415.99 267.17 415.99 274.18 415.99 274.18 408.95 281.2 408.95 288.22 408.95 288.22 401.91 295.24 401.91 302.25 401.91 309.27 401.91 316.29 401.91 323.31 401.91 323.31 394.87 330.32 394.87 330.32 387.82 337.34 387.82 344.36 387.82 351.38 387.82 358.39 387.82 365.41 387.82 372.43 387.82 379.45 387.82 386.46 387.82 386.46 380.78 386.46 373.74 393.48 373.74 393.48 366.7 400.5 366.7 400.5 359.65 400.5 352.61 393.48 352.61"/>
      <g>
        <polygon class="uuid-61323740-971c-4394-888f-672d39b87a8c" points="281.2 338.53 274.18 338.53 274.18 331.49 274.18 324.44 267.17 324.44 260.15 324.44 253.13 324.44 246.11 324.44 246.11 331.49 239.1 331.49 239.1 338.53 232.08 338.53 225.06 338.53 225.06 345.57 218.04 345.57 218.04 352.61 218.04 359.65 218.04 366.7 211.03 366.7 211.03 373.74 211.03 380.78 218.04 380.78 218.04 387.82 218.04 394.87 225.06 394.87 232.08 394.87 232.08 401.91 239.1 401.91 246.11 401.91 253.13 401.91 260.15 401.91 267.17 401.91 267.17 394.87 267.17 387.82 274.18 387.82 274.18 380.78 281.2 380.78 281.2 373.74 288.22 373.74 288.22 366.7 288.22 359.65 288.22 352.61 288.22 345.57 281.2 345.57 281.2 338.53"/>
        <polygon class="uuid-61323740-971c-4394-888f-672d39b87a8c" points="379.45 338.53 379.45 331.49 379.45 324.44 372.43 324.44 365.41 324.44 358.39 324.44 358.39 331.49 358.39 338.53 365.41 338.53 365.41 345.57 365.41 352.61 358.39 352.61 358.39 359.65 358.39 366.7 358.39 373.74 365.41 373.74 365.41 366.7 372.43 366.7 372.43 359.65 379.45 359.65 379.45 352.61 379.45 345.57 386.46 345.57 386.46 338.53 379.45 338.53"/>
        <polygon class="uuid-61323740-971c-4394-888f-672d39b87a8c" points="344.36 331.49 344.36 324.44 337.34 324.44 337.34 317.4 337.34 310.36 330.32 310.36 330.32 303.32 323.31 303.32 316.29 303.32 316.29 296.27 309.27 296.27 302.25 296.27 302.25 303.32 295.24 303.32 288.22 303.32 288.22 310.36 281.2 310.36 274.18 310.36 267.17 310.36 260.15 310.36 253.13 310.36 253.13 317.4 260.15 317.4 267.17 317.4 274.18 317.4 281.2 317.4 281.2 324.44 288.22 324.44 288.22 331.49 295.24 331.49 295.24 338.53 295.24 345.57 302.25 345.57 302.25 352.61 302.25 359.65 302.25 366.7 302.25 373.74 302.25 380.78 295.24 380.78 295.24 387.82 302.25 387.82 309.27 387.82 316.29 387.82 323.31 387.82 323.31 380.78 323.31 373.74 330.32 373.74 330.32 366.7 337.34 366.7 337.34 359.65 344.36 359.65 344.36 352.61 351.38 352.61 351.38 345.57 351.38 338.53 344.36 338.53 344.36 331.49"/>
      </g>
      <g>
        <polygon class="uuid-b4765aec-1efa-4383-91f5-b3c842869ac9" points="365.41 317.4 365.41 310.36 358.39 310.36 351.38 310.36 351.38 317.4 351.38 324.44 358.39 324.44 365.41 324.44 372.43 324.44 372.43 317.4 365.41 317.4"/>
        <polygon class="uuid-b4765aec-1efa-4383-91f5-b3c842869ac9" points="295.24 289.23 288.22 289.23 288.22 296.27 281.2 296.27 274.18 296.27 274.18 303.32 267.17 303.32 267.17 310.36 274.18 310.36 281.2 310.36 288.22 310.36 288.22 303.32 295.24 303.32 302.25 303.32 302.25 296.27 309.27 296.27 309.27 289.23 302.25 289.23 295.24 289.23"/>
        <polygon class="uuid-b4765aec-1efa-4383-91f5-b3c842869ac9" points="253.13 317.4 246.11 317.4 239.1 317.4 239.1 324.44 232.08 324.44 225.06 324.44 225.06 331.49 218.04 331.49 218.04 338.53 211.03 338.53 211.03 345.57 204.01 345.57 204.01 352.61 204.01 359.65 204.01 366.7 211.03 366.7 218.04 366.7 218.04 359.65 218.04 352.61 218.04 345.57 225.06 345.57 225.06 338.53 232.08 338.53 239.1 338.53 239.1 331.49 246.11 331.49 246.11 324.44 253.13 324.44 260.15 324.44 267.17 324.44 267.17 317.4 260.15 317.4 253.13 317.4"/>
      </g>
      <rect class="uuid-05383507-136f-4e78-a81d-a3de9f5e8038" x="196.99" y="486.42" width="7.02" height="7.04"/>
      <rect class="uuid-05383507-136f-4e78-a81d-a3de9f5e8038" x="154.89" y="415.99" width="7.01" height="7.05"/>
      <rect class="uuid-2b3eaa14-caea-4f59-babf-da8aa3788259" x="119.8" y="472.33" width="7.02" height="7.04"/>
      <polygon class="uuid-a98c9bca-b53f-4a39-9331-662a016acb6e" points="204.01 155.43 196.99 155.43 189.97 155.43 182.96 155.43 175.94 155.43 168.92 155.43 161.9 155.43 161.9 148.39 154.89 148.39 147.87 148.39 140.85 148.39 140.85 155.43 133.83 155.43 126.82 155.43 119.8 155.43 112.78 155.43 112.78 162.47 119.8 162.47 119.8 169.51 126.82 169.51 133.83 169.51 140.85 169.51 140.85 176.56 147.87 176.56 154.89 176.56 161.9 176.56 168.92 176.56 175.94 176.56 175.94 169.51 182.96 169.51 189.97 169.51 196.99 169.51 204.01 169.51 211.03 169.51 211.03 162.47 211.03 155.43 204.01 155.43"/>
      <rect class="uuid-2b3eaa14-caea-4f59-babf-da8aa3788259" x="98.75" y="401.91" width="7.01" height="7.04"/>
      <polygon class="uuid-39c04839-a87e-4ff1-a251-920f20092d1f" points="246.11 162.47 239.1 162.47 232.08 162.47 225.06 162.47 218.04 162.47 211.03 162.47 211.03 169.51 204.01 169.51 196.99 169.51 189.97 169.51 182.96 169.51 175.94 169.51 175.94 176.56 168.92 176.56 161.9 176.56 154.89 176.56 147.87 176.56 140.85 176.56 140.85 169.51 133.83 169.51 126.82 169.51 119.8 169.51 119.8 162.47 112.78 162.47 105.76 162.47 98.75 162.47 98.75 169.51 105.76 169.51 112.78 169.51 112.78 176.56 119.8 176.56 126.82 176.56 133.83 176.56 133.83 183.6 140.85 183.6 147.87 183.6 154.89 183.6 161.9 183.6 168.92 183.6 175.94 183.6 182.96 183.6 182.96 176.56 189.97 176.56 196.99 176.56 204.01 176.56 211.03 176.56 218.04 176.56 218.04 169.51 225.06 169.51 232.08 169.51 239.1 169.51 246.11 169.51 253.13 169.51 253.13 162.47 246.11 162.47"/>
      <polygon class="uuid-65812c8f-67dc-42e5-bc99-b27a859a773c" points="232.08 155.43 225.06 155.43 218.04 155.43 218.04 148.39 211.03 148.39 204.01 148.39 196.99 148.39 189.97 148.39 182.96 148.39 175.94 148.39 168.92 148.39 168.92 141.35 161.9 141.35 154.89 141.35 147.87 141.35 140.85 141.35 133.83 141.35 133.83 148.39 126.82 148.39 119.8 148.39 112.78 148.39 105.76 148.39 105.76 155.43 98.75 155.43 98.75 162.47 105.76 162.47 112.78 162.47 112.78 155.43 119.8 155.43 126.82 155.43 133.83 155.43 140.85 155.43 140.85 148.39 147.87 148.39 154.89 148.39 161.9 148.39 161.9 155.43 168.92 155.43 175.94 155.43 182.96 155.43 189.97 155.43 196.99 155.43 204.01 155.43 211.03 155.43 211.03 162.47 218.04 162.47 225.06 162.47 232.08 162.47 239.1 162.47 239.1 155.43 232.08 155.43"/>
      <g>
        <polygon class="uuid-a98c9bca-b53f-4a39-9331-662a016acb6e" points="246.11 155.43 246.11 148.39 239.1 148.39 232.08 148.39 225.06 148.39 225.06 141.35 225.06 134.3 218.04 134.3 211.03 134.3 204.01 134.3 196.99 134.3 196.99 141.35 189.97 141.35 182.96 141.35 175.94 141.35 175.94 134.3 168.92 134.3 161.9 134.3 161.9 127.26 154.89 127.26 147.87 127.26 140.85 127.26 140.85 134.3 133.83 134.3 133.83 141.35 140.85 141.35 147.87 141.35 154.89 141.35 161.9 141.35 168.92 141.35 168.92 148.39 175.94 148.39 182.96 148.39 189.97 148.39 196.99 148.39 204.01 148.39 211.03 148.39 218.04 148.39 218.04 155.43 225.06 155.43 232.08 155.43 239.1 155.43 239.1 162.47 246.11 162.47 253.13 162.47 253.13 155.43 246.11 155.43"/>
        <polygon class="uuid-a98c9bca-b53f-4a39-9331-662a016acb6e" points="119.8 141.35 112.78 141.35 105.76 141.35 98.75 141.35 98.75 148.39 91.73 148.39 84.71 148.39 84.71 155.43 84.71 162.47 91.73 162.47 98.75 162.47 98.75 155.43 105.76 155.43 105.76 148.39 112.78 148.39 119.8 148.39 126.82 148.39 133.83 148.39 133.83 141.35 126.82 141.35 119.8 141.35"/>
      </g>
      <rect class="uuid-05383507-136f-4e78-a81d-a3de9f5e8038" x="63.66" y="458.25" width="7.02" height="7.04"/>
      <polygon class="uuid-39c04839-a87e-4ff1-a251-920f20092d1f" points="140.85 56.84 133.83 56.84 126.82 56.84 126.82 63.88 119.8 63.88 112.78 63.88 105.76 63.88 105.76 70.92 98.75 70.92 98.75 63.88 91.73 63.88 84.71 63.88 77.69 63.88 77.69 56.84 70.68 56.84 63.66 56.84 56.64 56.84 49.62 56.84 49.62 49.8 42.61 49.8 35.59 49.8 35.59 56.84 42.61 56.84 42.61 63.88 49.62 63.88 56.64 63.88 63.66 63.88 70.68 63.88 70.68 70.92 77.69 70.92 84.71 70.92 91.73 70.92 91.73 77.96 98.75 77.96 105.76 77.96 112.78 77.96 112.78 70.92 119.8 70.92 126.82 70.92 133.83 70.92 133.83 63.88 140.85 63.88 147.87 63.88 147.87 56.84 140.85 56.84"/>
      <polygon class="uuid-65812c8f-67dc-42e5-bc99-b27a859a773c" points="119.8 42.75 112.78 42.75 105.76 42.75 98.75 42.75 91.73 42.75 91.73 35.71 84.71 35.71 77.69 35.71 70.68 35.71 63.66 35.71 56.64 35.71 49.62 35.71 42.61 35.71 42.61 42.75 35.59 42.75 35.59 49.8 42.61 49.8 49.62 49.8 49.62 42.75 56.64 42.75 63.66 42.75 70.68 42.75 77.69 42.75 84.71 42.75 84.71 49.8 91.73 49.8 98.75 49.8 105.76 49.8 112.78 49.8 119.8 49.8 126.82 49.8 126.82 42.75 119.8 42.75"/>
      <g>
        <polygon class="uuid-a98c9bca-b53f-4a39-9331-662a016acb6e" points="140.85 49.8 140.85 42.75 133.83 42.75 126.82 42.75 126.82 49.8 119.8 49.8 112.78 49.8 105.76 49.8 98.75 49.8 91.73 49.8 84.71 49.8 84.71 42.75 77.69 42.75 70.68 42.75 63.66 42.75 56.64 42.75 49.62 42.75 49.62 49.8 49.62 56.84 56.64 56.84 63.66 56.84 70.68 56.84 77.69 56.84 77.69 63.88 84.71 63.88 91.73 63.88 98.75 63.88 98.75 70.92 105.76 70.92 105.76 63.88 112.78 63.88 119.8 63.88 126.82 63.88 126.82 56.84 133.83 56.84 140.85 56.84 147.87 56.84 147.87 49.8 140.85 49.8"/>
        <polygon class="uuid-a98c9bca-b53f-4a39-9331-662a016acb6e" points="119.8 35.71 119.8 28.67 112.78 28.67 105.76 28.67 105.76 35.71 98.75 35.71 91.73 35.71 91.73 42.75 98.75 42.75 105.76 42.75 112.78 42.75 119.8 42.75 126.82 42.75 126.82 35.71 119.8 35.71"/>
        <polygon class="uuid-a98c9bca-b53f-4a39-9331-662a016acb6e" points="84.71 28.67 77.69 28.67 70.68 28.67 63.66 28.67 63.66 21.63 56.64 21.63 49.62 21.63 49.62 28.67 42.61 28.67 42.61 35.71 49.62 35.71 56.64 35.71 63.66 35.71 70.68 35.71 77.69 35.71 84.71 35.71 91.73 35.71 91.73 28.67 84.71 28.67"/>
        <polygon class="uuid-a98c9bca-b53f-4a39-9331-662a016acb6e" points="28.57 35.71 28.57 42.75 28.57 49.8 35.59 49.8 35.59 42.75 42.61 42.75 42.61 35.71 35.59 35.71 28.57 35.71"/>
      </g>
      <rect class="uuid-2b3eaa14-caea-4f59-babf-da8aa3788259" x="21.55" y="486.42" width="7.02" height="7.04"/>
      <g>
        <rect class="uuid-05383507-136f-4e78-a81d-a3de9f5e8038" x="379.45" y="479.37" width="7.01" height="7.05"/>
        <rect class="uuid-05383507-136f-4e78-a81d-a3de9f5e8038" x="372.43" y="486.42" width="7.02" height="7.04"/>
        <rect class="uuid-05383507-136f-4e78-a81d-a3de9f5e8038" x="372.43" y="472.33" width="7.02" height="7.04"/>
        <rect class="uuid-05383507-136f-4e78-a81d-a3de9f5e8038" x="365.41" y="479.37" width="7.02" height="7.05"/>
        <rect class="uuid-05383507-136f-4e78-a81d-a3de9f5e8038" x="330.32" y="415.99" width="7.02" height="7.05"/>
        <rect class="uuid-05383507-136f-4e78-a81d-a3de9f5e8038" x="323.31" y="423.04" width="7.01" height="7.04"/>
        <rect class="uuid-05383507-136f-4e78-a81d-a3de9f5e8038" x="323.31" y="408.95" width="7.01" height="7.04"/>
        <rect class="uuid-05383507-136f-4e78-a81d-a3de9f5e8038" x="316.29" y="415.99" width="7.02" height="7.05"/>
        <rect class="uuid-05383507-136f-4e78-a81d-a3de9f5e8038" x="232.08" y="437.12" width="7.02" height="7.04"/>
        <rect class="uuid-05383507-136f-4e78-a81d-a3de9f5e8038" x="225.06" y="444.16" width="7.02" height="7.04"/>
        <rect class="uuid-05383507-136f-4e78-a81d-a3de9f5e8038" x="225.06" y="430.08" width="7.02" height="7.04"/>
        <rect class="uuid-05383507-136f-4e78-a81d-a3de9f5e8038" x="218.04" y="437.12" width="7.02" height="7.04"/>
        <rect class="uuid-05383507-136f-4e78-a81d-a3de9f5e8038" x="126.82" y="472.33" width="7.01" height="7.04"/>
        <rect class="uuid-05383507-136f-4e78-a81d-a3de9f5e8038" x="119.8" y="479.37" width="7.02" height="7.05"/>
        <rect class="uuid-05383507-136f-4e78-a81d-a3de9f5e8038" x="119.8" y="465.29" width="7.02" height="7.04"/>
        <rect class="uuid-05383507-136f-4e78-a81d-a3de9f5e8038" x="112.78" y="472.33" width="7.02" height="7.04"/>
        <rect class="uuid-05383507-136f-4e78-a81d-a3de9f5e8038" x="105.76" y="401.91" width="7.02" height="7.04"/>
        <rect class="uuid-05383507-136f-4e78-a81d-a3de9f5e8038" x="98.75" y="408.95" width="7.01" height="7.04"/>
        <rect class="uuid-05383507-136f-4e78-a81d-a3de9f5e8038" x="98.75" y="394.87" width="7.01" height="7.04"/>
        <rect class="uuid-05383507-136f-4e78-a81d-a3de9f5e8038" x="91.73" y="401.91" width="7.02" height="7.04"/>
        <rect class="uuid-05383507-136f-4e78-a81d-a3de9f5e8038" x="28.57" y="486.42" width="7.02" height="7.04"/>
        <rect class="uuid-05383507-136f-4e78-a81d-a3de9f5e8038" x="21.55" y="493.46" width="7.02" height="7.04"/>
        <rect class="uuid-05383507-136f-4e78-a81d-a3de9f5e8038" x="21.55" y="479.37" width="7.02" height="7.05"/>
        <rect class="uuid-05383507-136f-4e78-a81d-a3de9f5e8038" x="14.54" y="486.42" width="7.01" height="7.04"/>
      </g>
      <rect class="uuid-05383507-136f-4e78-a81d-a3de9f5e8038" x="14.54" y="415.99" width="7.01" height="7.05"/>
      <g>
        <rect class="uuid-960a8fb8-c702-45bb-a951-681928e7b5d7" x="281.2" y="472.33" width="7.02" height="7.04"/>
        <rect class="uuid-960a8fb8-c702-45bb-a951-681928e7b5d7" x="274.18" y="479.37" width="7.02" height="7.05"/>
        <rect class="uuid-960a8fb8-c702-45bb-a951-681928e7b5d7" x="274.18" y="465.29" width="7.02" height="7.04"/>
        <rect class="uuid-960a8fb8-c702-45bb-a951-681928e7b5d7" x="267.17" y="472.33" width="7.01" height="7.04"/>
        <rect class="uuid-960a8fb8-c702-45bb-a951-681928e7b5d7" x="204.01" y="486.42" width="7.02" height="7.04"/>
        <rect class="uuid-960a8fb8-c702-45bb-a951-681928e7b5d7" x="196.99" y="493.46" width="7.02" height="7.04"/>
        <rect class="uuid-960a8fb8-c702-45bb-a951-681928e7b5d7" x="196.99" y="479.37" width="7.02" height="7.05"/>
        <rect class="uuid-960a8fb8-c702-45bb-a951-681928e7b5d7" x="189.97" y="486.42" width="7.02" height="7.04"/>
        <rect class="uuid-960a8fb8-c702-45bb-a951-681928e7b5d7" x="161.9" y="415.99" width="7.02" height="7.05"/>
        <rect class="uuid-960a8fb8-c702-45bb-a951-681928e7b5d7" x="154.89" y="423.04" width="7.01" height="7.04"/>
        <rect class="uuid-960a8fb8-c702-45bb-a951-681928e7b5d7" x="154.89" y="408.95" width="7.01" height="7.04"/>
        <rect class="uuid-960a8fb8-c702-45bb-a951-681928e7b5d7" x="147.87" y="415.99" width="7.02" height="7.05"/>
        <rect class="uuid-960a8fb8-c702-45bb-a951-681928e7b5d7" x="70.68" y="458.25" width="7.01" height="7.04"/>
        <rect class="uuid-960a8fb8-c702-45bb-a951-681928e7b5d7" x="63.66" y="465.29" width="7.02" height="7.04"/>
        <rect class="uuid-960a8fb8-c702-45bb-a951-681928e7b5d7" x="63.66" y="451.2" width="7.02" height="7.05"/>
        <rect class="uuid-960a8fb8-c702-45bb-a951-681928e7b5d7" x="56.64" y="458.25" width="7.02" height="7.04"/>
        <rect class="uuid-960a8fb8-c702-45bb-a951-681928e7b5d7" x="21.55" y="415.99" width="7.02" height="7.05"/>
        <rect class="uuid-960a8fb8-c702-45bb-a951-681928e7b5d7" x="14.54" y="423.04" width="7.01" height="7.04"/>
        <rect class="uuid-960a8fb8-c702-45bb-a951-681928e7b5d7" x="14.54" y="408.95" width="7.01" height="7.04"/>
        <rect class="uuid-960a8fb8-c702-45bb-a951-681928e7b5d7" x="7.52" y="415.99" width="7.02" height="7.05"/>
      </g>
      <g>
        <polygon class="uuid-61323740-971c-4394-888f-672d39b87a8c" points="63.66 366.7 63.66 359.65 56.64 359.65 56.64 352.61 49.62 352.61 42.61 352.61 35.59 352.61 28.57 352.61 28.57 359.65 21.55 359.65 21.55 366.7 14.54 366.7 14.54 373.74 21.55 373.74 21.55 380.78 28.57 380.78 28.57 387.82 35.59 387.82 35.59 394.87 42.61 394.87 49.62 394.87 56.64 394.87 63.66 394.87 63.66 387.82 63.66 380.78 70.68 380.78 70.68 373.74 70.68 366.7 63.66 366.7"/>
        <polygon class="uuid-c7ca1e58-1083-4f16-b1fe-881176f8dad7" points="35.59 394.87 35.59 387.82 28.57 387.82 21.55 387.82 14.54 387.82 14.54 380.78 7.52 380.78 7.52 387.82 7.52 394.87 14.54 394.87 14.54 401.91 21.55 401.91 28.57 401.91 35.59 401.91 42.61 401.91 42.61 394.87 35.59 394.87"/>
        <polygon class="uuid-b4765aec-1efa-4383-91f5-b3c842869ac9" points="70.68 352.61 70.68 345.57 63.66 345.57 63.66 338.53 56.64 338.53 49.62 338.53 42.61 338.53 35.59 338.53 35.59 345.57 28.57 345.57 21.55 345.57 21.55 352.61 14.54 352.61 14.54 359.65 7.52 359.65 7.52 366.7 7.52 373.74 7.52 380.78 14.54 380.78 14.54 387.82 21.55 387.82 28.57 387.82 28.57 380.78 21.55 380.78 21.55 373.74 14.54 373.74 14.54 366.7 21.55 366.7 21.55 359.65 28.57 359.65 28.57 352.61 35.59 352.61 42.61 352.61 49.62 352.61 56.64 352.61 56.64 359.65 63.66 359.65 63.66 366.7 70.68 366.7 70.68 373.74 70.68 380.78 63.66 380.78 63.66 387.82 63.66 394.87 70.68 394.87 70.68 387.82 77.69 387.82 77.69 380.78 77.69 373.74 77.69 366.7 77.69 359.65 77.69 352.61 70.68 352.61"/>
      </g>
      <polygon class="uuid-8dcbd10e-5a7a-4d43-bb69-214220b51ab8" points="204.01 366.7 204.01 359.65 204.01 352.61 196.99 352.61 189.97 352.61 182.96 352.61 175.94 352.61 168.92 352.61 161.9 352.61 154.89 352.61 147.87 352.61 140.85 352.61 133.83 352.61 133.83 359.65 126.82 359.65 119.8 359.65 112.78 359.65 105.76 359.65 105.76 366.7 98.75 366.7 98.75 373.74 91.73 373.74 84.71 373.74 77.69 373.74 77.69 380.78 77.69 387.82 77.69 394.87 77.69 401.91 70.68 401.91 63.66 401.91 63.66 408.95 56.64 408.95 56.64 415.99 49.62 415.99 49.62 423.04 42.61 423.04 35.59 423.04 35.59 430.08 28.57 430.08 28.57 437.12 21.55 437.12 21.55 444.16 14.54 444.16 14.54 451.2 7.52 451.2 7.52 458.25 7.52 465.29 .5 465.29 .5 472.33 .5 479.37 .5 486.42 7.52 486.42 7.52 479.37 14.54 479.37 14.54 472.33 14.54 465.29 21.55 465.29 21.55 458.25 21.55 451.2 28.57 451.2 28.57 444.16 35.59 444.16 35.59 437.12 42.61 437.12 49.62 437.12 49.62 430.08 56.64 430.08 63.66 430.08 63.66 423.04 70.68 423.04 70.68 415.99 77.69 415.99 77.69 408.95 84.71 408.95 91.73 408.95 91.73 401.91 98.75 401.91 98.75 394.87 105.76 394.87 112.78 394.87 119.8 394.87 119.8 387.82 126.82 387.82 133.83 387.82 140.85 387.82 147.87 387.82 147.87 380.78 154.89 380.78 161.9 380.78 168.92 380.78 175.94 380.78 182.96 380.78 182.96 373.74 189.97 373.74 196.99 373.74 204.01 373.74 211.03 373.74 211.03 366.7 204.01 366.7"/>
      <g>
        <path class="uuid-3ce53baa-c7a2-4520-b9c5-71c837668cbd" d="M393.48,366.7v7.04h-7.02v14.08h-56.14v7.05h-7.01v7.04h-35.09v7.04h-14.04v7.04h-35.08v-7.04h-14.04v-14.08h-7.02v-14.09h-7.01v-7.04h-28.07v7.04h-35.09v7.04h-28.07v7.05h-14.04v7.04h7.02v7.04h-7.02v7.04h-7.01v-7.04h-21.06v7.04h-7.01v7.05h-7.02v7.04h-14.04v7.04h-14.03v7.04h-7.02v7.04h-7.02v14.09h-7.01v14.08h-7.02v7.05H.5v14.08h21.05v-7.04h-7.01v-7.04h7.01v-7.05h7.02v7.05h7.02v7.04h-7.02v7.04h168.42v-7.04h-7.02v-7.04h7.02v-7.05h7.02v7.05h7.02v7.04h-7.02v7.04h196.49v-133.8h-7.02ZM77.69,465.29h-7.01v7.04h-7.02v-7.04h-7.02v-7.04h7.02v-7.05h7.02v7.05h7.01v7.04ZM133.83,479.37h-7.01v7.05h-7.02v-7.05h-7.02v-7.04h7.02v-7.04h7.02v7.04h7.01v7.04ZM168.92,423.04h-7.02v7.04h-7.01v-7.04h-7.02v-7.05h7.02v-7.04h7.01v7.04h7.02v7.05ZM239.1,444.16h-7.02v7.04h-7.02v-7.04h-7.02v-7.04h7.02v-7.04h7.02v7.04h7.02v7.04ZM288.22,479.37h-7.02v7.05h-7.02v-7.05h-7.01v-7.04h7.01v-7.04h7.02v7.04h7.02v7.04ZM316.29,423.04v-7.05h7.02v-7.04h7.01v7.04h7.02v7.05h-7.02v7.04h-7.01v-7.04h-7.02ZM386.46,486.42h-7.01v7.04h-7.02v-7.04h-7.02v-7.05h7.02v-7.04h7.02v7.04h7.01v7.05Z"/>
        <path class="uuid-3ce53baa-c7a2-4520-b9c5-71c837668cbd" d="M7.52,458.25v-7.05h7.02v-7.04h7.01v-7.04h7.02v-7.04h7.02v-7.04h14.03v-7.05h7.02v-7.04h7.02v-7.04h14.03v-14.09h-7.01v7.05h-28.07v7.04H14.54v-7.04h-7.02v-14.09H.5v84.51h7.02v-7.04ZM7.52,415.99h7.02v-7.04h7.01v7.04h7.02v7.05h-7.02v7.04h-7.01v-7.04h-7.02v-7.05Z"/>
      </g>
      <polygon class="uuid-9f5e424c-190a-496f-a07a-abf31e760203" points="393.48 246.98 386.46 246.98 379.45 246.98 372.43 246.98 365.41 246.98 358.39 246.98 351.38 246.98 344.36 246.98 337.34 246.98 330.32 246.98 330.32 239.94 323.31 239.94 316.29 239.94 309.27 239.94 302.25 239.94 295.24 239.94 288.22 239.94 288.22 246.98 281.2 246.98 274.18 246.98 267.17 246.98 260.15 246.98 253.13 246.98 253.13 254.02 246.11 254.02 239.1 254.02 232.08 254.02 232.08 261.06 225.06 261.06 218.04 261.06 211.03 261.06 211.03 268.11 204.01 268.11 196.99 268.11 189.97 268.11 182.96 268.11 175.94 268.11 168.92 268.11 168.92 275.15 161.9 275.15 154.89 275.15 147.87 275.15 147.87 282.19 140.85 282.19 133.83 282.19 126.82 282.19 126.82 289.23 119.8 289.23 112.78 289.23 105.76 289.23 105.76 296.27 98.75 296.27 91.73 296.27 91.73 303.32 84.71 303.32 77.69 303.32 70.68 303.32 70.68 310.36 63.66 310.36 56.64 310.36 49.62 310.36 42.61 310.36 35.59 310.36 28.57 310.36 21.55 310.36 14.54 310.36 14.54 317.4 7.52 317.4 .5 317.4 .5 324.44 .5 331.49 .5 338.53 .5 345.57 .5 352.61 .5 359.65 .5 366.7 .5 373.74 .5 380.78 7.52 380.78 7.52 373.74 7.52 366.7 7.52 359.65 14.54 359.65 14.54 352.61 21.55 352.61 21.55 345.57 28.57 345.57 35.59 345.57 35.59 338.53 42.61 338.53 49.62 338.53 56.64 338.53 63.66 338.53 63.66 345.57 70.68 345.57 70.68 352.61 77.69 352.61 77.69 359.65 77.69 366.7 77.69 373.74 84.71 373.74 91.73 373.74 98.75 373.74 98.75 366.7 105.76 366.7 105.76 359.65 112.78 359.65 119.8 359.65 126.82 359.65 133.83 359.65 133.83 352.61 140.85 352.61 147.87 352.61 154.89 352.61 161.9 352.61 168.92 352.61 175.94 352.61 182.96 352.61 189.97 352.61 196.99 352.61 204.01 352.61 204.01 345.57 211.03 345.57 211.03 338.53 218.04 338.53 218.04 331.49 225.06 331.49 225.06 324.44 232.08 324.44 239.1 324.44 239.1 317.4 246.11 317.4 253.13 317.4 253.13 310.36 260.15 310.36 267.17 310.36 267.17 303.32 274.18 303.32 274.18 296.27 281.2 296.27 288.22 296.27 288.22 289.23 295.24 289.23 302.25 289.23 309.27 289.23 316.29 289.23 323.31 289.23 330.32 289.23 330.32 296.27 337.34 296.27 337.34 303.32 344.36 303.32 344.36 310.36 351.38 310.36 358.39 310.36 365.41 310.36 365.41 317.4 372.43 317.4 379.45 317.4 379.45 324.44 386.46 324.44 386.46 331.49 386.46 338.53 393.48 338.53 393.48 345.57 393.48 352.61 400.5 352.61 400.5 345.57 400.5 338.53 400.5 331.49 400.5 324.44 400.5 317.4 400.5 310.36 400.5 303.32 400.5 296.27 400.5 289.23 400.5 282.19 400.5 275.15 400.5 268.11 400.5 261.06 400.5 254.02 400.5 246.98 393.48 246.98"/>
      <polygon class="uuid-85de5cb9-8ba2-4f46-8ddb-6608b7acbb63" points="393.48 183.6 393.48 190.64 386.46 190.64 386.46 197.68 379.45 197.68 372.43 197.68 365.41 197.68 358.39 197.68 358.39 190.64 351.38 190.64 344.36 190.64 337.34 190.64 330.32 190.64 323.31 190.64 316.29 190.64 316.29 197.68 309.27 197.68 302.25 197.68 295.24 197.68 288.22 197.68 281.2 197.68 274.18 197.68 267.17 197.68 260.15 197.68 253.13 197.68 246.11 197.68 239.1 197.68 232.08 197.68 225.06 197.68 225.06 204.73 218.04 204.73 211.03 204.73 204.01 204.73 204.01 211.77 196.99 211.77 189.97 211.77 182.96 211.77 175.94 211.77 168.92 211.77 161.9 211.77 154.89 211.77 147.87 211.77 140.85 211.77 133.83 211.77 133.83 218.81 126.82 218.81 119.8 218.81 112.78 218.81 105.76 218.81 98.75 218.81 91.73 218.81 84.71 218.81 77.69 218.81 70.68 218.81 63.66 218.81 56.64 218.81 49.62 218.81 49.62 225.85 42.61 225.85 35.59 225.85 28.57 225.85 21.55 225.85 14.54 225.85 7.52 225.85 .5 225.85 .5 232.89 .5 239.94 .5 246.98 .5 254.02 .5 261.06 .5 268.11 .5 275.15 .5 282.19 .5 289.23 .5 296.27 .5 303.32 .5 310.36 .5 317.4 7.52 317.4 14.54 317.4 14.54 310.36 21.55 310.36 28.57 310.36 35.59 310.36 42.61 310.36 49.62 310.36 56.64 310.36 63.66 310.36 70.68 310.36 70.68 303.32 77.69 303.32 84.71 303.32 91.73 303.32 91.73 296.27 98.75 296.27 105.76 296.27 105.76 289.23 112.78 289.23 119.8 289.23 126.82 289.23 126.82 282.19 133.83 282.19 140.85 282.19 147.87 282.19 147.87 275.15 154.89 275.15 161.9 275.15 168.92 275.15 168.92 268.11 175.94 268.11 182.96 268.11 189.97 268.11 196.99 268.11 204.01 268.11 211.03 268.11 211.03 261.06 218.04 261.06 225.06 261.06 232.08 261.06 232.08 254.02 239.1 254.02 246.11 254.02 253.13 254.02 253.13 246.98 260.15 246.98 267.17 246.98 274.18 246.98 281.2 246.98 288.22 246.98 288.22 239.94 295.24 239.94 302.25 239.94 309.27 239.94 316.29 239.94 323.31 239.94 330.32 239.94 330.32 246.98 337.34 246.98 344.36 246.98 351.38 246.98 358.39 246.98 365.41 246.98 372.43 246.98 379.45 246.98 386.46 246.98 393.48 246.98 393.48 239.94 400.5 239.94 400.5 232.89 400.5 225.85 400.5 218.81 400.5 211.77 400.5 204.73 400.5 197.68 400.5 190.64 400.5 183.6 393.48 183.6"/>
      <polygon class="uuid-3a2eaca7-a5fc-4ba1-9af9-19791376a339" points="393.48 56.84 386.46 56.84 379.45 56.84 372.43 56.84 365.41 56.84 358.39 56.84 351.38 56.84 351.38 63.88 344.36 63.88 344.36 70.92 337.34 70.92 337.34 77.96 330.32 77.96 330.32 85.01 323.31 85.01 316.29 85.01 309.27 85.01 302.25 85.01 302.25 92.05 295.24 92.05 295.24 99.09 288.22 99.09 281.2 99.09 281.2 106.13 274.18 106.13 267.17 106.13 267.17 113.18 260.15 113.18 253.13 113.18 246.11 113.18 239.1 113.18 232.08 113.18 225.06 113.18 218.04 113.18 211.03 113.18 204.01 113.18 204.01 120.22 196.99 120.22 189.97 120.22 189.97 127.26 182.96 127.26 182.96 134.3 175.94 134.3 175.94 141.35 182.96 141.35 189.97 141.35 196.99 141.35 196.99 134.3 204.01 134.3 211.03 134.3 218.04 134.3 225.06 134.3 225.06 141.35 225.06 148.39 232.08 148.39 239.1 148.39 246.11 148.39 246.11 155.43 253.13 155.43 253.13 162.47 253.13 169.51 246.11 169.51 239.1 169.51 232.08 169.51 225.06 169.51 218.04 169.51 218.04 176.56 211.03 176.56 204.01 176.56 196.99 176.56 189.97 176.56 182.96 176.56 182.96 183.6 175.94 183.6 168.92 183.6 161.9 183.6 154.89 183.6 147.87 183.6 140.85 183.6 133.83 183.6 133.83 176.56 126.82 176.56 119.8 176.56 112.78 176.56 112.78 169.51 105.76 169.51 98.75 169.51 98.75 162.47 91.73 162.47 91.73 169.51 84.71 169.51 77.69 169.51 77.69 176.56 70.68 176.56 63.66 176.56 63.66 183.6 56.64 183.6 49.62 183.6 42.61 183.6 35.59 183.6 28.57 183.6 21.55 183.6 14.54 183.6 7.52 183.6 .5 183.6 .5 190.64 .5 197.68 .5 204.73 .5 211.77 .5 218.81 .5 225.85 7.52 225.85 14.54 225.85 21.55 225.85 28.57 225.85 35.59 225.85 42.61 225.85 49.62 225.85 49.62 218.81 56.64 218.81 63.66 218.81 70.68 218.81 77.69 218.81 84.71 218.81 91.73 218.81 98.75 218.81 105.76 218.81 112.78 218.81 119.8 218.81 126.82 218.81 133.83 218.81 133.83 211.77 140.85 211.77 147.87 211.77 154.89 211.77 161.9 211.77 168.92 211.77 175.94 211.77 182.96 211.77 189.97 211.77 196.99 211.77 204.01 211.77 204.01 204.73 211.03 204.73 218.04 204.73 225.06 204.73 225.06 197.68 232.08 197.68 239.1 197.68 246.11 197.68 253.13 197.68 260.15 197.68 267.17 197.68 274.18 197.68 281.2 197.68 288.22 197.68 295.24 197.68 302.25 197.68 309.27 197.68 316.29 197.68 316.29 190.64 323.31 190.64 330.32 190.64 337.34 190.64 344.36 190.64 344.36 183.6 337.34 183.6 337.34 176.56 337.34 169.51 344.36 169.51 344.36 162.47 351.38 162.47 358.39 162.47 365.41 162.47 365.41 155.43 372.43 155.43 379.45 155.43 386.46 155.43 393.48 155.43 400.5 155.43 400.5 148.39 400.5 141.35 400.5 134.3 400.5 127.26 400.5 120.22 400.5 113.18 400.5 106.13 400.5 99.09 400.5 92.05 400.5 85.01 400.5 77.96 400.5 70.92 400.5 63.88 400.5 56.84 393.48 56.84"/>
      <g>
        <polygon class="uuid-a98c9bca-b53f-4a39-9331-662a016acb6e" points="35.59 106.13 35.59 99.09 28.57 99.09 21.55 99.09 14.54 99.09 14.54 92.05 7.52 92.05 7.52 99.09 7.52 106.13 14.54 106.13 15.54 106.13 15.54 113.18 8.52 113.18 8.52 120.22 15.54 120.22 21.55 120.22 22.55 120.22 22.55 127.26 29.57 127.26 29.57 120.22 35.59 120.22 42.61 120.22 42.61 113.18 42.61 106.13 35.59 106.13"/>
        <polygon class="uuid-39c04839-a87e-4ff1-a251-920f20092d1f" points="14.54 120.22 7.52 120.22 7.52 113.18 14.54 113.18 14.54 106.13 7.52 106.13 7.52 99.09 7.52 92.05 .5 92.05 .5 99.09 .5 106.13 .5 113.18 .5 120.22 .5 127.26 7.52 127.26 14.54 127.26 21.55 127.26 21.55 120.22 14.54 120.22"/>
      </g>
      <path class="uuid-ebf64467-70a8-40b2-8948-f4a4e0e631ba" d="M393.48.5H.5v91.55h14.04v7.04h21.05v7.04h7.02v14.09h-14.04v7.04H.5v56.34h63.16v-7.04h14.03v-7.05h14.04v-7.04h-7.02v-14.08h14.04v-7.04h35.08v-7.05h7.02v-7.04h21.05v7.04h21.06v-7.04h7.01v-7.04h14.04v-7.04h63.16v-7.05h14.03v-7.04h14.04v-7.04h7.01v-7.04h7.02v-7.05h-14.03v7.05h-21.06v-7.05h-14.03v-7.04h-14.04v-14.08h7.02v-7.04h28.07v-7.05h14.04v-7.04h21.05v7.04h14.03v7.05h14.04v7.04h56.14V.5h-7.02ZM147.87,56.84v7.04h-14.04v7.04h-21.05v7.04h-21.05v-7.04h-21.05v-7.04h-28.07v-7.04h-7.02v-7.04h-7.02v-14.09h14.04v-7.04h7.01v-7.04h14.04v7.04h28.07v7.04h14.03v-7.04h14.04v7.04h7.02v7.04h14.03v7.05h7.02v7.04Z"/>
    </g>
  </g>
</svg>