<?xml version="1.0" encoding="UTF-8"?>
<svg id="uuid-8ac290f3-0474-4a69-ae0d-4c84b1e9cbec" data-name="Layer_1" xmlns="http://www.w3.org/2000/svg" viewBox="0 0 1000 1000">
  <defs>
    <style>
      .uuid-a42b255a-fea9-4b23-a17c-9386879b7e45 {
        fill: #abbfc4;
      }

      .uuid-1a928999-4128-4ec3-960b-e0d02e76656e {
        fill: #e089a9;
      }

      .uuid-7ee51b55-7f87-4f45-be6a-f5387adeaf8c {
        fill: #663000;
      }

      .uuid-3b7a12ac-1294-4c9a-9d12-41d852ef7b3b {
        fill: #b75e15;
      }

      .uuid-018c3946-801d-4595-97b7-508874670fea {
        fill: #c1d3d2;
      }

      .uuid-57fbb6f4-4fd9-4511-abc7-803bf3203df1 {
        fill: #f2ce5c;
      }

      .uuid-96359a37-aa44-409a-b441-5204319e8628 {
        fill: #a86233;
      }

      .uuid-372d7d2e-87e5-4922-a71c-7df9c2c7a37f {
        fill: #f9e4a7;
      }

      .uuid-cef927eb-dff4-44ac-8707-7699de67bb79 {
        fill: #193f09;
      }

      .uuid-2d55d361-e21b-4413-ba17-f96881005fed {
        fill: #fcf5e6;
      }

      .uuid-7e91e827-6bde-4cfc-a06f-fb6d40e0bc70 {
        fill: #999;
      }

      .uuid-a7d89e10-efd8-4264-93cb-8980537357f7 {
        fill: #f7ecd0;
      }

      .uuid-e7baca6a-a0a0-4684-a44d-f25ad422e940 {
        fill: #232323;
      }

      .uuid-43a65fcc-81c9-4241-85a1-30a52a49c291 {
        fill: #e59351;
      }

      .uuid-e35556b8-6ec3-4360-ae1c-5a10fa7fd457 {
        fill: #2e6819;
      }

      .uuid-8dced5df-dbbd-459d-a8d6-3f5f6a8c4edf {
        fill: #d3dbdd;
      }

      .uuid-cbe208c4-bf4b-4098-9b40-6b5103a3302e {
        fill: #bcc4c4;
      }
    </style>
  </defs>
  <g>
    <rect class="uuid-3b7a12ac-1294-4c9a-9d12-41d852ef7b3b" x="486.48" y="399.26" width="19.61" height="19.61"/>
    <rect class="uuid-3b7a12ac-1294-4c9a-9d12-41d852ef7b3b" x="486.48" y="360.05" width="19.61" height="19.61"/>
    <polygon class="uuid-3b7a12ac-1294-4c9a-9d12-41d852ef7b3b" points="447.26 418.87 447.26 438.48 466.87 438.48 486.48 438.48 486.48 418.87 466.87 418.87 447.26 418.87"/>
  </g>
  <polygon class="uuid-a7d89e10-efd8-4264-93cb-8980537357f7" points="466.87 360.05 447.26 360.05 427.66 360.05 427.66 379.66 447.26 379.66 466.87 379.66 486.48 379.66 486.48 360.05 466.87 360.05"/>
  <g>
    <polygon class="uuid-7e91e827-6bde-4cfc-a06f-fb6d40e0bc70" points="584.52 752.21 584.52 732.6 564.91 732.6 564.91 752.21 564.91 771.81 584.52 771.81 604.13 771.81 604.13 752.21 584.52 752.21"/>
    <polygon class="uuid-7e91e827-6bde-4cfc-a06f-fb6d40e0bc70" points="310.01 752.21 310.01 771.81 329.62 771.81 349.23 771.81 349.23 752.21 329.62 752.21 310.01 752.21"/>
  </g>
  <g>
    <polygon class="uuid-8dced5df-dbbd-459d-a8d6-3f5f6a8c4edf" points="643.34 575.74 643.34 556.13 623.74 556.13 623.74 536.52 604.13 536.52 604.13 556.13 604.13 575.74 584.52 575.74 564.91 575.74 564.91 595.34 545.3 595.34 525.7 595.34 525.7 614.95 545.3 614.95 564.91 614.95 584.52 614.95 604.13 614.95 623.74 614.95 643.34 614.95 643.34 595.34 662.95 595.34 662.95 575.74 643.34 575.74"/>
    <polygon class="uuid-8dced5df-dbbd-459d-a8d6-3f5f6a8c4edf" points="486.48 614.95 486.48 634.56 466.87 634.56 447.26 634.56 447.26 654.17 466.87 654.17 486.48 654.17 506.09 654.17 506.09 634.56 525.7 634.56 525.7 614.95 506.09 614.95 486.48 614.95"/>
    <polygon class="uuid-8dced5df-dbbd-459d-a8d6-3f5f6a8c4edf" points="329.62 556.13 329.62 536.52 310.01 536.52 310.01 556.13 310.01 575.74 310.01 595.34 329.62 595.34 349.23 595.34 349.23 575.74 329.62 575.74 329.62 556.13"/>
  </g>
  <g>
    <rect class="uuid-2d55d361-e21b-4413-ba17-f96881005fed" x="408.05" y="477.7" width="19.61" height="19.6"/>
    <g>
      <polygon class="uuid-2d55d361-e21b-4413-ba17-f96881005fed" points="702.17 418.87 682.56 418.87 662.95 418.87 662.95 438.48 643.34 438.48 643.34 458.09 623.74 458.09 623.74 477.7 643.34 477.7 643.34 497.3 662.95 497.3 662.95 477.7 662.95 458.09 682.56 458.09 682.56 438.48 702.17 438.48 721.77 438.48 721.77 418.87 702.17 418.87"/>
      <polygon class="uuid-2d55d361-e21b-4413-ba17-f96881005fed" points="623.74 281.62 643.34 281.62 643.34 262.01 643.34 242.4 623.74 242.4 623.74 262.01 623.74 281.62"/>
      <rect class="uuid-2d55d361-e21b-4413-ba17-f96881005fed" x="604.13" y="222.79" width="19.61" height="19.61"/>
      <polygon class="uuid-2d55d361-e21b-4413-ba17-f96881005fed" points="584.52 203.19 564.91 203.19 564.91 222.79 584.52 222.79 604.13 222.79 604.13 203.19 584.52 203.19"/>
      <polygon class="uuid-2d55d361-e21b-4413-ba17-f96881005fed" points="545.3 183.58 525.7 183.58 525.7 203.19 545.3 203.19 564.91 203.19 564.91 183.58 545.3 183.58"/>
      <polygon class="uuid-2d55d361-e21b-4413-ba17-f96881005fed" points="427.66 163.97 447.26 163.97 447.26 144.36 447.26 124.75 427.66 124.75 408.05 124.75 408.05 144.36 427.66 144.36 427.66 163.97"/>
      <rect class="uuid-2d55d361-e21b-4413-ba17-f96881005fed" x="368.83" y="183.58" width="19.61" height="19.61"/>
      <polygon class="uuid-2d55d361-e21b-4413-ba17-f96881005fed" points="368.83 222.79 368.83 203.19 349.23 203.19 329.62 203.19 329.62 222.79 349.23 222.79 368.83 222.79"/>
      <polygon class="uuid-2d55d361-e21b-4413-ba17-f96881005fed" points="584.52 516.91 584.52 497.3 564.91 497.3 545.3 497.3 525.7 497.3 525.7 516.91 506.09 516.91 506.09 536.52 486.48 536.52 486.48 556.13 466.87 556.13 447.26 556.13 427.66 556.13 427.66 536.52 408.05 536.52 408.05 516.91 388.44 516.91 388.44 497.3 368.83 497.3 349.23 497.3 349.23 477.7 329.62 477.7 310.01 477.7 310.01 497.3 310.01 516.91 310.01 536.52 329.62 536.52 329.62 556.13 329.62 575.74 349.23 575.74 349.23 595.34 368.83 595.34 388.44 595.34 388.44 614.95 408.05 614.95 427.66 614.95 447.26 614.95 447.26 634.56 466.87 634.56 486.48 634.56 486.48 614.95 506.09 614.95 525.7 614.95 525.7 595.34 545.3 595.34 564.91 595.34 564.91 575.74 584.52 575.74 604.13 575.74 604.13 556.13 604.13 536.52 604.13 516.91 584.52 516.91"/>
      <polygon class="uuid-2d55d361-e21b-4413-ba17-f96881005fed" points="427.66 536.52 447.26 536.52 466.87 536.52 486.48 536.52 486.48 516.91 506.09 516.91 506.09 497.3 525.7 497.3 525.7 477.7 525.7 458.09 506.09 458.09 486.48 458.09 466.87 458.09 447.26 458.09 427.66 458.09 427.66 477.7 427.66 497.3 408.05 497.3 408.05 516.91 427.66 516.91 427.66 536.52"/>
    </g>
  </g>
  <g>
    <polygon class="uuid-cef927eb-dff4-44ac-8707-7699de67bb79" points="702.17 732.6 702.17 712.99 682.56 712.99 662.95 712.99 643.34 712.99 643.34 732.6 643.34 752.21 662.95 752.21 662.95 771.81 662.95 791.42 643.34 791.42 643.34 811.03 623.74 811.03 604.13 811.03 584.52 811.03 564.91 811.03 545.3 811.03 525.7 811.03 525.7 791.42 506.09 791.42 506.09 771.81 525.7 771.81 525.7 752.21 506.09 752.21 486.48 752.21 466.87 752.21 447.26 752.21 427.66 752.21 427.66 771.81 408.05 771.81 388.44 771.81 388.44 791.42 368.83 791.42 349.23 791.42 329.62 791.42 310.01 791.42 290.4 791.42 290.4 811.03 310.01 811.03 329.62 811.03 349.23 811.03 368.83 811.03 388.44 811.03 408.05 811.03 427.66 811.03 447.26 811.03 466.87 811.03 486.48 811.03 506.09 811.03 506.09 830.64 525.7 830.64 545.3 830.64 564.91 830.64 584.52 830.64 604.13 830.64 623.74 830.64 643.34 830.64 662.95 830.64 662.95 811.03 682.56 811.03 702.17 811.03 702.17 791.42 721.77 791.42 721.77 771.81 721.77 752.21 721.77 732.6 702.17 732.6"/>
    <polygon class="uuid-cef927eb-dff4-44ac-8707-7699de67bb79" points="564.91 752.21 564.91 732.6 545.3 732.6 525.7 732.6 525.7 752.21 545.3 752.21 564.91 752.21"/>
  </g>
  <g>
    <polygon class="uuid-e7baca6a-a0a0-4684-a44d-f25ad422e940" points="604.13 301.23 604.13 320.83 604.13 340.44 584.52 340.44 564.91 340.44 564.91 320.83 564.91 301.23 545.3 301.23 545.3 320.83 545.3 340.44 545.3 360.05 545.3 379.66 564.91 379.66 564.91 399.26 584.52 399.26 604.13 399.26 604.13 379.66 623.74 379.66 623.74 360.05 623.74 340.44 623.74 320.83 623.74 301.23 604.13 301.23"/>
    <polygon class="uuid-e7baca6a-a0a0-4684-a44d-f25ad422e940" points="604.13 301.23 604.13 281.62 584.52 281.62 564.91 281.62 564.91 301.23 584.52 301.23 604.13 301.23"/>
    <polygon class="uuid-e7baca6a-a0a0-4684-a44d-f25ad422e940" points="349.23 320.83 349.23 340.44 329.62 340.44 329.62 320.83 329.62 301.23 310.01 301.23 310.01 320.83 290.4 320.83 290.4 340.44 290.4 360.05 290.4 379.66 310.01 379.66 310.01 399.26 329.62 399.26 349.23 399.26 349.23 379.66 368.83 379.66 368.83 360.05 368.83 340.44 368.83 320.83 368.83 301.23 349.23 301.23 349.23 320.83"/>
    <rect class="uuid-e7baca6a-a0a0-4684-a44d-f25ad422e940" x="329.62" y="281.62" width="19.61" height="19.61"/>
  </g>
  <g>
    <polygon class="uuid-cbe208c4-bf4b-4098-9b40-6b5103a3302e" points="623.74 654.17 604.13 654.17 584.52 654.17 584.52 673.77 564.91 673.77 564.91 693.38 584.52 693.38 604.13 693.38 623.74 693.38 623.74 673.77 643.34 673.77 643.34 654.17 623.74 654.17"/>
    <polygon class="uuid-cbe208c4-bf4b-4098-9b40-6b5103a3302e" points="525.7 693.38 506.09 693.38 486.48 693.38 466.87 693.38 447.26 693.38 427.66 693.38 408.05 693.38 388.44 693.38 388.44 673.77 368.83 673.77 349.23 673.77 329.62 673.77 329.62 654.17 310.01 654.17 290.4 654.17 270.79 654.17 270.79 673.77 290.4 673.77 290.4 693.38 310.01 693.38 329.62 693.38 329.62 712.99 349.23 712.99 368.83 712.99 388.44 712.99 408.05 712.99 427.66 712.99 447.26 712.99 466.87 712.99 486.48 712.99 506.09 712.99 525.7 712.99 545.3 712.99 564.91 712.99 564.91 693.38 545.3 693.38 525.7 693.38"/>
  </g>
  <g>
    <polygon class="uuid-1a928999-4128-4ec3-960b-e0d02e76656e" points="623.74 360.05 623.74 379.66 604.13 379.66 604.13 399.26 604.13 418.87 623.74 418.87 643.34 418.87 643.34 399.26 643.34 379.66 643.34 360.05 623.74 360.05"/>
    <polygon class="uuid-1a928999-4128-4ec3-960b-e0d02e76656e" points="270.79 379.66 270.79 399.26 270.79 418.87 290.4 418.87 310.01 418.87 310.01 399.26 310.01 379.66 290.4 379.66 270.79 379.66"/>
  </g>
  <polygon class="uuid-018c3946-801d-4595-97b7-508874670fea" points="682.56 575.74 662.95 575.74 662.95 595.34 643.34 595.34 643.34 614.95 623.74 614.95 604.13 614.95 584.52 614.95 564.91 614.95 545.3 614.95 525.7 614.95 525.7 634.56 506.09 634.56 506.09 654.17 486.48 654.17 466.87 654.17 447.26 654.17 447.26 634.56 427.66 634.56 427.66 614.95 408.05 614.95 388.44 614.95 388.44 595.34 368.83 595.34 349.23 595.34 329.62 595.34 310.01 595.34 310.01 575.74 310.01 556.13 310.01 536.52 290.4 536.52 290.4 556.13 290.4 575.74 290.4 595.34 270.79 595.34 270.79 575.74 251.19 575.74 251.19 595.34 251.19 614.95 270.79 614.95 290.4 614.95 310.01 614.95 329.62 614.95 329.62 634.56 349.23 634.56 368.83 634.56 388.44 634.56 408.05 634.56 408.05 654.17 388.44 654.17 388.44 673.77 388.44 693.38 408.05 693.38 427.66 693.38 447.26 693.38 466.87 693.38 486.48 693.38 506.09 693.38 525.7 693.38 545.3 693.38 564.91 693.38 564.91 673.77 584.52 673.77 584.52 654.17 604.13 654.17 623.74 654.17 643.34 654.17 662.95 654.17 662.95 634.56 682.56 634.56 682.56 614.95 702.17 614.95 702.17 595.34 702.17 575.74 682.56 575.74"/>
  <g>
    <polygon class="uuid-57fbb6f4-4fd9-4511-abc7-803bf3203df1" points="662.95 379.66 662.95 360.05 662.95 340.44 662.95 320.83 662.95 301.23 643.34 301.23 643.34 281.62 623.74 281.62 604.13 281.62 604.13 301.23 623.74 301.23 623.74 320.83 623.74 340.44 623.74 360.05 643.34 360.05 643.34 379.66 643.34 399.26 643.34 418.87 662.95 418.87 682.56 418.87 682.56 399.26 682.56 379.66 662.95 379.66"/>
    <rect class="uuid-57fbb6f4-4fd9-4511-abc7-803bf3203df1" x="643.34" y="556.13" width="19.61" height="19.61"/>
    <rect class="uuid-57fbb6f4-4fd9-4511-abc7-803bf3203df1" x="623.74" y="536.52" width="19.6" height="19.61"/>
    <rect class="uuid-57fbb6f4-4fd9-4511-abc7-803bf3203df1" x="604.13" y="516.91" width="19.61" height="19.61"/>
    <path class="uuid-57fbb6f4-4fd9-4511-abc7-803bf3203df1" d="M604.13,418.87v-19.61h-39.22v-19.6h-19.61v-78.43h19.61v-19.61h39.22v-19.61h19.61v-19.61h-19.61v-19.61h-39.22v-19.6h-39.21v-19.61h-78.44v19.61h-78.43v19.6h-39.21v19.61h-19.61v19.61h-19.61v19.61h-39.21v176.47h19.6v-78.43h19.61v-58.83h19.61v-19.6h19.61v-19.61h19.61v19.61h19.6v78.43h-19.6v19.6h-39.22v19.61h-19.61v39.22h19.61v19.61h39.22v19.6h58.82v-19.6h19.61v-19.61h98.04v39.21h58.82v19.61h19.61v-78.43h39.21v-19.61h-39.21ZM466.87,438.48h-39.21v-19.61h-19.61v-58.82h19.61v-19.61h58.82v19.61h19.61v58.82h-19.61v19.61h-19.61Z"/>
  </g>
  <g>
    <rect class="uuid-a42b255a-fea9-4b23-a17c-9386879b7e45" x="506.09" y="497.3" width="19.61" height="19.61"/>
    <rect class="uuid-a42b255a-fea9-4b23-a17c-9386879b7e45" x="486.48" y="516.91" width="19.61" height="19.61"/>
    <polygon class="uuid-a42b255a-fea9-4b23-a17c-9386879b7e45" points="447.26 536.52 427.66 536.52 427.66 556.13 447.26 556.13 466.87 556.13 486.48 556.13 486.48 536.52 466.87 536.52 447.26 536.52"/>
    <rect class="uuid-a42b255a-fea9-4b23-a17c-9386879b7e45" x="408.05" y="516.91" width="19.61" height="19.61"/>
    <rect class="uuid-a42b255a-fea9-4b23-a17c-9386879b7e45" x="388.44" y="497.3" width="19.61" height="19.61"/>
    <g>
      <g>
        <polygon class="uuid-a42b255a-fea9-4b23-a17c-9386879b7e45" points="486.48 712.99 466.87 712.99 447.26 712.99 427.66 712.99 408.05 712.99 408.05 732.6 427.66 732.6 447.26 732.6 466.87 732.6 486.48 732.6 506.09 732.6 525.7 732.6 525.7 712.99 506.09 712.99 486.48 712.99"/>
        <polygon class="uuid-a42b255a-fea9-4b23-a17c-9386879b7e45" points="702.17 575.74 702.17 595.34 702.17 614.95 682.56 614.95 682.56 634.56 662.95 634.56 662.95 654.17 643.34 654.17 643.34 673.77 623.74 673.77 623.74 693.38 604.13 693.38 584.52 693.38 564.91 693.38 564.91 712.99 584.52 712.99 604.13 712.99 623.74 712.99 643.34 712.99 643.34 693.38 662.95 693.38 682.56 693.38 682.56 673.77 702.17 673.77 702.17 654.17 702.17 634.56 721.77 634.56 721.77 614.95 721.77 595.34 721.77 575.74 702.17 575.74"/>
      </g>
      <polygon class="uuid-a42b255a-fea9-4b23-a17c-9386879b7e45" points="368.83 634.56 349.23 634.56 329.62 634.56 329.62 614.95 310.01 614.95 290.4 614.95 270.79 614.95 251.19 614.95 251.19 595.34 251.19 575.74 231.58 575.74 231.58 556.13 211.97 556.13 211.97 575.74 211.97 595.34 211.97 614.95 231.58 614.95 231.58 634.56 231.58 654.17 251.19 654.17 251.19 673.77 270.79 673.77 270.79 654.17 290.4 654.17 310.01 654.17 329.62 654.17 329.62 673.77 349.23 673.77 368.83 673.77 388.44 673.77 388.44 654.17 408.05 654.17 408.05 634.56 388.44 634.56 368.83 634.56"/>
    </g>
    <polygon class="uuid-a42b255a-fea9-4b23-a17c-9386879b7e45" points="290.4 575.74 290.4 556.13 270.79 556.13 270.79 575.74 270.79 595.34 290.4 595.34 290.4 575.74"/>
  </g>
  <g>
    <polygon class="uuid-96359a37-aa44-409a-b441-5204319e8628" points="702.17 556.13 682.56 556.13 662.95 556.13 662.95 575.74 682.56 575.74 702.17 575.74 721.77 575.74 721.77 556.13 702.17 556.13"/>
    <rect class="uuid-96359a37-aa44-409a-b441-5204319e8628" x="643.34" y="536.52" width="19.61" height="19.61"/>
    <rect class="uuid-96359a37-aa44-409a-b441-5204319e8628" x="643.34" y="418.87" width="19.61" height="19.61"/>
    <rect class="uuid-96359a37-aa44-409a-b441-5204319e8628" x="623.74" y="516.91" width="19.6" height="19.61"/>
    <g>
      <rect class="uuid-96359a37-aa44-409a-b441-5204319e8628" x="564.91" y="163.97" width="19.61" height="19.61"/>
      <polygon class="uuid-96359a37-aa44-409a-b441-5204319e8628" points="506.09 124.75 506.09 144.36 506.09 163.97 525.7 163.97 525.7 144.36 545.3 144.36 545.3 124.75 525.7 124.75 506.09 124.75"/>
      <rect class="uuid-96359a37-aa44-409a-b441-5204319e8628" x="466.87" y="105.15" width="19.61" height="19.6"/>
      <rect class="uuid-96359a37-aa44-409a-b441-5204319e8628" x="447.26" y="124.75" width="19.61" height="19.61"/>
      <polygon class="uuid-96359a37-aa44-409a-b441-5204319e8628" points="623.74 438.48 604.13 438.48 604.13 458.09 604.13 477.7 604.13 497.3 604.13 516.91 623.74 516.91 623.74 497.3 623.74 477.7 623.74 458.09 643.34 458.09 643.34 438.48 623.74 438.48"/>
    </g>
    <polygon class="uuid-96359a37-aa44-409a-b441-5204319e8628" points="604.13 732.6 584.52 732.6 584.52 752.21 604.13 752.21 604.13 771.81 584.52 771.81 584.52 791.42 604.13 791.42 623.74 791.42 623.74 771.81 623.74 752.21 623.74 732.6 604.13 732.6"/>
    <polygon class="uuid-96359a37-aa44-409a-b441-5204319e8628" points="349.23 732.6 329.62 732.6 310.01 732.6 310.01 752.21 329.62 752.21 349.23 752.21 349.23 771.81 368.83 771.81 388.44 771.81 388.44 752.21 388.44 732.6 368.83 732.6 349.23 732.6"/>
    <g>
      <polygon class="uuid-96359a37-aa44-409a-b441-5204319e8628" points="466.87 379.66 447.26 379.66 427.66 379.66 427.66 399.26 447.26 399.26 466.87 399.26 486.48 399.26 486.48 379.66 466.87 379.66"/>
      <polygon class="uuid-96359a37-aa44-409a-b441-5204319e8628" points="290.4 438.48 270.79 438.48 270.79 458.09 270.79 477.7 290.4 477.7 290.4 497.3 290.4 516.91 290.4 536.52 310.01 536.52 310.01 516.91 310.01 497.3 310.01 477.7 310.01 458.09 290.4 458.09 290.4 438.48"/>
    </g>
    <polygon class="uuid-96359a37-aa44-409a-b441-5204319e8628" points="251.19 536.52 231.58 536.52 211.97 536.52 211.97 556.13 231.58 556.13 231.58 575.74 251.19 575.74 270.79 575.74 270.79 556.13 290.4 556.13 290.4 536.52 270.79 536.52 251.19 536.52"/>
  </g>
  <g>
    <g>
      <rect class="uuid-372d7d2e-87e5-4922-a71c-7df9c2c7a37f" x="310.01" y="222.79" width="19.61" height="19.61"/>
      <rect class="uuid-372d7d2e-87e5-4922-a71c-7df9c2c7a37f" x="290.4" y="242.4" width="19.61" height="19.61"/>
      <rect class="uuid-372d7d2e-87e5-4922-a71c-7df9c2c7a37f" x="270.79" y="262.01" width="19.61" height="19.61"/>
    </g>
    <g>
      <polygon class="uuid-372d7d2e-87e5-4922-a71c-7df9c2c7a37f" points="741.38 438.48 721.77 438.48 702.17 438.48 682.56 438.48 682.56 458.09 662.95 458.09 662.95 477.7 662.95 497.3 643.34 497.3 643.34 516.91 662.95 516.91 682.56 516.91 682.56 536.52 702.17 536.52 702.17 516.91 721.77 516.91 741.38 516.91 741.38 497.3 760.99 497.3 760.99 477.7 760.99 458.09 760.99 438.48 741.38 438.48"/>
      <rect class="uuid-372d7d2e-87e5-4922-a71c-7df9c2c7a37f" x="604.13" y="262.01" width="19.61" height="19.61"/>
      <rect class="uuid-372d7d2e-87e5-4922-a71c-7df9c2c7a37f" x="427.66" y="614.95" width="19.6" height="19.61"/>
    </g>
    <polygon class="uuid-372d7d2e-87e5-4922-a71c-7df9c2c7a37f" points="270.79 497.3 270.79 477.7 270.79 458.09 251.19 458.09 251.19 438.48 231.58 438.48 231.58 458.09 211.97 458.09 211.97 477.7 192.36 477.7 192.36 497.3 211.97 497.3 231.58 497.3 231.58 516.91 251.19 516.91 251.19 536.52 270.79 536.52 270.79 516.91 290.4 516.91 290.4 497.3 270.79 497.3"/>
  </g>
  <g>
    <polygon class="uuid-43a65fcc-81c9-4241-85a1-30a52a49c291" points="760.99 438.48 760.99 458.09 760.99 477.7 760.99 497.3 741.38 497.3 741.38 516.91 721.77 516.91 702.17 516.91 702.17 536.52 682.56 536.52 682.56 516.91 662.95 516.91 643.34 516.91 643.34 536.52 662.95 536.52 662.95 556.13 682.56 556.13 702.17 556.13 721.77 556.13 741.38 556.13 741.38 536.52 760.99 536.52 760.99 516.91 780.6 516.91 780.6 497.3 780.6 477.7 780.6 458.09 780.6 438.48 760.99 438.48"/>
    <polygon class="uuid-43a65fcc-81c9-4241-85a1-30a52a49c291" points="741.38 418.87 741.38 399.26 721.77 399.26 702.17 399.26 702.17 379.66 682.56 379.66 682.56 399.26 682.56 418.87 702.17 418.87 721.77 418.87 721.77 438.48 741.38 438.48 760.99 438.48 760.99 418.87 741.38 418.87"/>
    <polygon class="uuid-43a65fcc-81c9-4241-85a1-30a52a49c291" points="682.56 340.44 682.56 320.83 682.56 301.23 682.56 281.62 662.95 281.62 662.95 262.01 643.34 262.01 643.34 281.62 643.34 301.23 662.95 301.23 662.95 320.83 662.95 340.44 662.95 360.05 662.95 379.66 682.56 379.66 682.56 360.05 682.56 340.44"/>
    <polygon class="uuid-43a65fcc-81c9-4241-85a1-30a52a49c291" points="643.34 477.7 623.74 477.7 623.74 497.3 623.74 516.91 643.34 516.91 643.34 497.3 643.34 477.7"/>
    <rect class="uuid-43a65fcc-81c9-4241-85a1-30a52a49c291" x="427.66" y="418.87" width="19.6" height="19.61"/>
    <rect class="uuid-43a65fcc-81c9-4241-85a1-30a52a49c291" x="408.05" y="399.26" width="19.61" height="19.61"/>
    <rect class="uuid-43a65fcc-81c9-4241-85a1-30a52a49c291" x="408.05" y="360.05" width="19.61" height="19.61"/>
    <g>
      <polygon class="uuid-43a65fcc-81c9-4241-85a1-30a52a49c291" points="486.48 144.36 486.48 163.97 466.87 163.97 466.87 144.36 447.26 144.36 447.26 163.97 427.66 163.97 427.66 144.36 408.05 144.36 408.05 163.97 408.05 183.58 388.44 183.58 388.44 203.19 408.05 203.19 427.66 203.19 447.26 203.19 447.26 183.58 466.87 183.58 486.48 183.58 506.09 183.58 506.09 163.97 506.09 144.36 486.48 144.36"/>
      <rect class="uuid-43a65fcc-81c9-4241-85a1-30a52a49c291" x="349.23" y="183.58" width="19.6" height="19.61"/>
    </g>
    <polygon class="uuid-43a65fcc-81c9-4241-85a1-30a52a49c291" points="623.74 771.81 623.74 791.42 643.34 791.42 643.34 771.81 643.34 752.21 623.74 752.21 623.74 771.81"/>
    <g>
      <rect class="uuid-43a65fcc-81c9-4241-85a1-30a52a49c291" x="545.3" y="752.21" width="19.61" height="19.6"/>
      <rect class="uuid-43a65fcc-81c9-4241-85a1-30a52a49c291" x="525.7" y="771.81" width="19.6" height="19.61"/>
      <polygon class="uuid-43a65fcc-81c9-4241-85a1-30a52a49c291" points="270.79 752.21 270.79 771.81 290.4 771.81 310.01 771.81 310.01 752.21 290.4 752.21 270.79 752.21"/>
    </g>
    <rect class="uuid-43a65fcc-81c9-4241-85a1-30a52a49c291" x="270.79" y="516.91" width="19.61" height="19.61"/>
    <polygon class="uuid-43a65fcc-81c9-4241-85a1-30a52a49c291" points="231.58 418.87 211.97 418.87 211.97 438.48 192.36 438.48 192.36 458.09 192.36 477.7 211.97 477.7 211.97 458.09 231.58 458.09 231.58 438.48 251.19 438.48 251.19 418.87 251.19 399.26 231.58 399.26 231.58 418.87"/>
    <polygon class="uuid-43a65fcc-81c9-4241-85a1-30a52a49c291" points="231.58 497.3 211.97 497.3 192.36 497.3 192.36 516.91 211.97 516.91 211.97 536.52 231.58 536.52 251.19 536.52 251.19 516.91 231.58 516.91 231.58 497.3"/>
  </g>
  <g>
    <rect class="uuid-7ee51b55-7f87-4f45-be6a-f5387adeaf8c" x="760.99" y="516.91" width="19.61" height="19.61"/>
    <rect class="uuid-7ee51b55-7f87-4f45-be6a-f5387adeaf8c" x="741.38" y="536.52" width="19.61" height="19.61"/>
    <polygon class="uuid-7ee51b55-7f87-4f45-be6a-f5387adeaf8c" points="721.77 575.74 721.77 595.34 721.77 614.95 721.77 634.56 741.38 634.56 741.38 614.95 741.38 595.34 741.38 575.74 741.38 556.13 721.77 556.13 721.77 575.74"/>
    <polygon class="uuid-7ee51b55-7f87-4f45-be6a-f5387adeaf8c" points="702.17 654.17 702.17 673.77 721.77 673.77 721.77 654.17 721.77 634.56 702.17 634.56 702.17 654.17"/>
    <rect class="uuid-7ee51b55-7f87-4f45-be6a-f5387adeaf8c" x="682.56" y="673.77" width="19.61" height="19.61"/>
    <g>
      <rect class="uuid-7ee51b55-7f87-4f45-be6a-f5387adeaf8c" x="486.48" y="379.66" width="19.61" height="19.6"/>
      <polygon class="uuid-7ee51b55-7f87-4f45-be6a-f5387adeaf8c" points="447.26 399.26 427.66 399.26 427.66 418.87 447.26 418.87 466.87 418.87 486.48 418.87 486.48 399.26 466.87 399.26 447.26 399.26"/>
      <polygon class="uuid-7ee51b55-7f87-4f45-be6a-f5387adeaf8c" points="466.87 360.05 486.48 360.05 486.48 340.44 466.87 340.44 447.26 340.44 427.66 340.44 427.66 360.05 447.26 360.05 466.87 360.05"/>
      <rect class="uuid-7ee51b55-7f87-4f45-be6a-f5387adeaf8c" x="408.05" y="379.66" width="19.61" height="19.6"/>
      <polygon class="uuid-7ee51b55-7f87-4f45-be6a-f5387adeaf8c" points="780.6 438.48 780.6 458.09 780.6 477.7 780.6 497.3 780.6 516.91 800.21 516.91 800.21 497.3 800.21 477.7 800.21 458.09 800.21 438.48 780.6 438.48"/>
      <rect class="uuid-7ee51b55-7f87-4f45-be6a-f5387adeaf8c" x="760.99" y="418.87" width="19.61" height="19.61"/>
      <rect class="uuid-7ee51b55-7f87-4f45-be6a-f5387adeaf8c" x="741.38" y="399.26" width="19.61" height="19.61"/>
      <polygon class="uuid-7ee51b55-7f87-4f45-be6a-f5387adeaf8c" points="721.77 379.66 702.17 379.66 702.17 399.26 721.77 399.26 741.38 399.26 741.38 379.66 721.77 379.66"/>
      <g>
        <rect class="uuid-7ee51b55-7f87-4f45-be6a-f5387adeaf8c" x="270.79" y="477.7" width="19.61" height="19.6"/>
        <rect class="uuid-7ee51b55-7f87-4f45-be6a-f5387adeaf8c" x="270.79" y="418.87" width="19.61" height="19.61"/>
        <polygon class="uuid-7ee51b55-7f87-4f45-be6a-f5387adeaf8c" points="682.56 281.62 682.56 301.23 682.56 320.83 682.56 340.44 682.56 360.05 682.56 379.66 702.17 379.66 702.17 360.05 702.17 340.44 702.17 320.83 702.17 301.23 702.17 281.62 682.56 281.62"/>
      </g>
    </g>
    <rect class="uuid-7ee51b55-7f87-4f45-be6a-f5387adeaf8c" x="662.95" y="262.01" width="19.61" height="19.61"/>
    <polygon class="uuid-7ee51b55-7f87-4f45-be6a-f5387adeaf8c" points="643.34 693.38 643.34 712.99 662.95 712.99 682.56 712.99 682.56 693.38 662.95 693.38 643.34 693.38"/>
    <rect class="uuid-7ee51b55-7f87-4f45-be6a-f5387adeaf8c" x="643.34" y="242.4" width="19.61" height="19.61"/>
    <rect class="uuid-7ee51b55-7f87-4f45-be6a-f5387adeaf8c" x="623.74" y="222.79" width="19.6" height="19.61"/>
    <rect class="uuid-7ee51b55-7f87-4f45-be6a-f5387adeaf8c" x="604.13" y="203.19" width="19.61" height="19.6"/>
    <polygon class="uuid-7ee51b55-7f87-4f45-be6a-f5387adeaf8c" points="584.52 183.58 564.91 183.58 564.91 203.19 584.52 203.19 604.13 203.19 604.13 183.58 584.52 183.58"/>
    <polygon class="uuid-7ee51b55-7f87-4f45-be6a-f5387adeaf8c" points="545.3 163.97 545.3 144.36 525.7 144.36 525.7 163.97 506.09 163.97 506.09 183.58 525.7 183.58 545.3 183.58 564.91 183.58 564.91 163.97 545.3 163.97"/>
    <polygon class="uuid-7ee51b55-7f87-4f45-be6a-f5387adeaf8c" points="466.87 163.97 486.48 163.97 486.48 144.36 506.09 144.36 506.09 124.75 486.48 124.75 466.87 124.75 466.87 144.36 466.87 163.97"/>
    <polygon class="uuid-7ee51b55-7f87-4f45-be6a-f5387adeaf8c" points="447.26 124.75 466.87 124.75 466.87 105.15 447.26 105.15 427.66 105.15 408.05 105.15 408.05 124.75 427.66 124.75 447.26 124.75"/>
    <polygon class="uuid-7ee51b55-7f87-4f45-be6a-f5387adeaf8c" points="408.05 183.58 408.05 163.97 408.05 144.36 408.05 124.75 388.44 124.75 388.44 144.36 388.44 163.97 368.83 163.97 368.83 183.58 388.44 183.58 408.05 183.58"/>
    <rect class="uuid-7ee51b55-7f87-4f45-be6a-f5387adeaf8c" x="329.62" y="183.58" width="19.61" height="19.61"/>
    <rect class="uuid-7ee51b55-7f87-4f45-be6a-f5387adeaf8c" x="310.01" y="203.19" width="19.61" height="19.6"/>
    <rect class="uuid-7ee51b55-7f87-4f45-be6a-f5387adeaf8c" x="290.4" y="222.79" width="19.61" height="19.61"/>
    <g>
      <polygon class="uuid-7ee51b55-7f87-4f45-be6a-f5387adeaf8c" points="643.34 752.21 643.34 771.81 643.34 791.42 662.95 791.42 662.95 771.81 662.95 752.21 643.34 752.21"/>
      <polygon class="uuid-7ee51b55-7f87-4f45-be6a-f5387adeaf8c" points="623.74 712.99 604.13 712.99 584.52 712.99 564.91 712.99 545.3 712.99 525.7 712.99 525.7 732.6 545.3 732.6 564.91 732.6 584.52 732.6 604.13 732.6 623.74 732.6 623.74 752.21 643.34 752.21 643.34 732.6 643.34 712.99 623.74 712.99"/>
      <g>
        <g>
          <polygon class="uuid-7ee51b55-7f87-4f45-be6a-f5387adeaf8c" points="623.74 791.42 604.13 791.42 584.52 791.42 584.52 771.81 564.91 771.81 545.3 771.81 545.3 791.42 525.7 791.42 525.7 811.03 545.3 811.03 564.91 811.03 584.52 811.03 604.13 811.03 623.74 811.03 643.34 811.03 643.34 791.42 623.74 791.42"/>
          <rect class="uuid-7ee51b55-7f87-4f45-be6a-f5387adeaf8c" x="525.7" y="752.21" width="19.6" height="19.6"/>
          <rect class="uuid-7ee51b55-7f87-4f45-be6a-f5387adeaf8c" x="506.09" y="771.81" width="19.61" height="19.61"/>
          <polygon class="uuid-7ee51b55-7f87-4f45-be6a-f5387adeaf8c" points="506.09 732.6 486.48 732.6 466.87 732.6 447.26 732.6 427.66 732.6 408.05 732.6 408.05 712.99 388.44 712.99 368.83 712.99 349.23 712.99 329.62 712.99 329.62 693.38 310.01 693.38 290.4 693.38 290.4 712.99 310.01 712.99 310.01 732.6 329.62 732.6 349.23 732.6 368.83 732.6 388.44 732.6 388.44 752.21 388.44 771.81 408.05 771.81 408.05 752.21 427.66 752.21 447.26 752.21 466.87 752.21 486.48 752.21 506.09 752.21 525.7 752.21 525.7 732.6 506.09 732.6"/>
        </g>
        <polygon class="uuid-7ee51b55-7f87-4f45-be6a-f5387adeaf8c" points="349.23 771.81 329.62 771.81 310.01 771.81 290.4 771.81 270.79 771.81 270.79 791.42 290.4 791.42 310.01 791.42 329.62 791.42 349.23 791.42 368.83 791.42 388.44 791.42 388.44 771.81 368.83 771.81 349.23 771.81"/>
        <polygon class="uuid-7ee51b55-7f87-4f45-be6a-f5387adeaf8c" points="290.4 752.21 310.01 752.21 310.01 732.6 290.4 732.6 270.79 732.6 251.19 732.6 251.19 752.21 251.19 771.81 270.79 771.81 270.79 752.21 290.4 752.21"/>
      </g>
    </g>
    <polygon class="uuid-7ee51b55-7f87-4f45-be6a-f5387adeaf8c" points="270.79 673.77 251.19 673.77 251.19 693.38 270.79 693.38 290.4 693.38 290.4 673.77 270.79 673.77"/>
    <rect class="uuid-7ee51b55-7f87-4f45-be6a-f5387adeaf8c" x="270.79" y="242.4" width="19.61" height="19.61"/>
    <rect class="uuid-7ee51b55-7f87-4f45-be6a-f5387adeaf8c" x="251.19" y="262.01" width="19.6" height="19.61"/>
    <rect class="uuid-7ee51b55-7f87-4f45-be6a-f5387adeaf8c" x="231.58" y="654.17" width="19.61" height="19.6"/>
    <polygon class="uuid-7ee51b55-7f87-4f45-be6a-f5387adeaf8c" points="251.19 379.66 251.19 360.05 251.19 340.44 251.19 320.83 251.19 301.23 251.19 281.62 231.58 281.62 231.58 301.23 231.58 320.83 231.58 340.44 231.58 360.05 231.58 379.66 231.58 399.26 251.19 399.26 251.19 379.66"/>
    <polygon class="uuid-7ee51b55-7f87-4f45-be6a-f5387adeaf8c" points="231.58 614.95 211.97 614.95 211.97 634.56 211.97 654.17 231.58 654.17 231.58 634.56 231.58 614.95"/>
    <rect class="uuid-7ee51b55-7f87-4f45-be6a-f5387adeaf8c" x="211.97" y="399.26" width="19.61" height="19.61"/>
    <polygon class="uuid-7ee51b55-7f87-4f45-be6a-f5387adeaf8c" points="211.97 575.74 211.97 556.13 192.36 556.13 192.36 575.74 192.36 595.34 192.36 614.95 211.97 614.95 211.97 595.34 211.97 575.74"/>
    <rect class="uuid-7ee51b55-7f87-4f45-be6a-f5387adeaf8c" x="192.36" y="516.91" width="19.61" height="19.61"/>
    <rect class="uuid-7ee51b55-7f87-4f45-be6a-f5387adeaf8c" x="192.36" y="418.87" width="19.61" height="19.61"/>
    <polygon class="uuid-7ee51b55-7f87-4f45-be6a-f5387adeaf8c" points="192.36 497.3 192.36 477.7 192.36 458.09 192.36 438.48 172.75 438.48 172.75 458.09 172.75 477.7 172.75 497.3 172.75 516.91 192.36 516.91 192.36 497.3"/>
  </g>
  <g>
    <polygon class="uuid-e35556b8-6ec3-4360-ae1c-5a10fa7fd457" points="623.74 830.64 604.13 830.64 584.52 830.64 564.91 830.64 545.3 830.64 525.7 830.64 506.09 830.64 506.09 811.03 486.48 811.03 466.87 811.03 447.26 811.03 427.66 811.03 408.05 811.03 388.44 811.03 368.83 811.03 349.23 811.03 329.62 811.03 310.01 811.03 290.4 811.03 290.4 791.42 270.79 791.42 270.79 771.81 251.19 771.81 251.19 752.21 251.19 732.6 231.58 732.6 211.97 732.6 211.97 752.21 192.36 752.21 172.75 752.21 172.75 771.81 153.15 771.81 153.15 791.42 172.75 791.42 172.75 811.03 192.36 811.03 211.97 811.03 211.97 830.64 231.58 830.64 231.58 850.25 251.19 850.25 270.79 850.25 270.79 869.85 290.4 869.85 310.01 869.85 329.62 869.85 349.23 869.85 368.83 869.85 388.44 869.85 408.05 869.85 427.66 869.85 447.26 869.85 466.87 869.85 486.48 869.85 506.09 869.85 525.7 869.85 545.3 869.85 564.91 869.85 584.52 869.85 604.13 869.85 623.74 869.85 643.34 869.85 643.34 850.25 662.95 850.25 662.95 830.64 643.34 830.64 623.74 830.64"/>
    <polygon class="uuid-e35556b8-6ec3-4360-ae1c-5a10fa7fd457" points="741.38 752.21 721.77 752.21 721.77 771.81 721.77 791.42 702.17 791.42 702.17 811.03 721.77 811.03 741.38 811.03 741.38 791.42 760.99 791.42 760.99 771.81 760.99 752.21 741.38 752.21"/>
    <polygon class="uuid-e35556b8-6ec3-4360-ae1c-5a10fa7fd457" points="662.95 811.03 662.95 830.64 682.56 830.64 702.17 830.64 702.17 811.03 682.56 811.03 662.95 811.03"/>
    <rect class="uuid-e35556b8-6ec3-4360-ae1c-5a10fa7fd457" x="408.05" y="752.21" width="19.61" height="19.6"/>
  </g>
</svg>