<?xml version="1.0" encoding="UTF-8"?>
<svg id="uuid-3ed780e4-5a10-4aae-8fbf-2499d12ced3b" data-name="Layer_1" xmlns="http://www.w3.org/2000/svg" viewBox="0 0 200 300">
  <defs>
    <style>
      .uuid-27c760cf-0d56-4434-9458-e0602a71bc89 {
        fill: #5e5b58;
      }

      .uuid-2db31549-e2c3-45d0-afa1-f2350ed998c8 {
        fill: #fcf6e3;
      }

      .uuid-7bbfb377-bc8f-4c6f-8c30-4bb0dcae90f6 {
        fill: #fff;
      }

      .uuid-dc46eb95-e7bf-40ef-92c9-40df7f7be09a {
        fill: #898279;
      }

      .uuid-f7fc680f-8cc3-4c75-bf4a-c6a980182385 {
        fill: #bcb8b3;
      }

      .uuid-fdbac2d7-bbe0-40aa-b4da-9d8c29aee4b2 {
        fill: #f4c33b;
      }

      .uuid-fe3879e2-3510-429a-a36e-9690a8b04000 {
        fill: #353535;
      }

      .uuid-132ff85d-483c-45a8-9809-8cd512589cd6 {
        fill: #d60f3b;
      }
    </style>
  </defs>
  <polygon class="uuid-7bbfb377-bc8f-4c6f-8c30-4bb0dcae90f6" points="163.76 143.36 163.79 143.36 163.79 136.21 163.76 136.21 163.76 136.37 163.76 143.36"/>
  <polygon class="uuid-7bbfb377-bc8f-4c6f-8c30-4bb0dcae90f6" points="170.93 179.07 170.93 171.93 170.93 164.79 170.93 157.64 170.93 150.5 163.79 150.5 163.79 157.64 163.79 164.79 163.79 171.93 163.79 179.07 163.79 186.21 163.79 193.36 163.79 200.5 163.79 207.64 156.64 207.64 156.64 214.79 156.64 221.93 149.5 221.93 149.5 229.07 149.5 236.21 142.36 236.21 142.36 243.36 135.21 243.36 128.07 243.36 120.93 243.36 120.93 250.5 113.79 250.5 113.79 257.64 120.93 257.64 128.07 257.64 135.21 257.64 135.21 250.5 142.36 250.5 149.5 250.5 149.5 243.36 156.64 243.36 156.64 236.21 163.79 236.21 163.79 229.07 163.79 221.93 163.79 214.79 170.93 214.79 178.07 214.79 178.07 207.64 178.07 200.5 178.07 193.36 178.07 186.21 178.07 179.07 170.93 179.07"/>
  <path class="uuid-2db31549-e2c3-45d0-afa1-f2350ed998c8" d="M178.07,171.93v-21.43h-7.14v28.57h7.14v35.72h-14.28v21.42h-7.15v7.15h-7.14v7.14h-14.29v7.14h-21.42v-7.14h7.14v-7.14h21.43v-7.15h7.14v-14.28h7.14v-14.29h7.15v-50h-14.29v-6.99h-.02v-.15h-7.12v-6.99h-.02v-.15h-7.13v-7.15h-7.14v7.15h-7.14v7.14h-7.14v-6.99h-.03v-.15h-14.26v-7.15h-7.14v7.15h-7.15v7.14h-14.28v-6.99h-.02v-.15h-14.27v7.14h-7.14v7.14h-7.14v28.57h-7.15v21.43h7.15v14.29h7.14v14.28h7.14v14.29h14.29v-7.14h7.14v7.14h-7.14v7.14h7.14v7.15h64.29v-7.15h21.43v-7.14h7.14v-14.29h7.14v-14.28h7.14v-50h-7.14ZM85.21,229.07h7.15v7.14h-7.15v-7.14ZM99.5,243.36h7.14v7.14h-7.14v-7.14ZM56.64,193.36h7.15v7.14h-7.15v-7.14ZM56.64,214.79h14.29v7.14h-14.29v-7.14Z"/>
  <g>
    <rect class="uuid-f7fc680f-8cc3-4c75-bf4a-c6a980182385" x="99.5" y="243.36" width="7.14" height="7.14"/>
    <rect class="uuid-f7fc680f-8cc3-4c75-bf4a-c6a980182385" x="85.21" y="229.07" width="7.15" height="7.14"/>
    <rect class="uuid-f7fc680f-8cc3-4c75-bf4a-c6a980182385" x="70.93" y="243.36" width="7.14" height="7.14"/>
    <polygon class="uuid-f7fc680f-8cc3-4c75-bf4a-c6a980182385" points="70.93 221.93 70.93 214.79 63.79 214.79 56.64 214.79 56.64 221.93 63.79 221.93 70.93 221.93"/>
    <rect class="uuid-f7fc680f-8cc3-4c75-bf4a-c6a980182385" x="56.64" y="193.36" width="7.15" height="7.14"/>
    <polygon class="uuid-f7fc680f-8cc3-4c75-bf4a-c6a980182385" points="149.5 257.64 142.36 257.64 142.36 264.79 135.21 264.79 128.07 264.79 120.93 264.79 113.79 264.79 106.64 264.79 99.5 264.79 92.36 264.79 85.21 264.79 78.07 264.79 78.07 257.64 70.93 257.64 70.93 250.5 63.79 250.5 56.64 250.5 56.64 243.36 56.64 236.21 49.5 236.21 49.5 229.07 49.5 221.93 42.36 221.93 42.36 214.79 42.36 207.64 35.21 207.64 35.21 200.5 35.21 193.36 35.21 186.21 42.36 186.21 42.36 179.07 42.36 171.93 42.36 164.79 35.21 164.79 35.21 157.64 28.07 157.64 28.07 164.79 28.07 171.93 28.07 179.07 20.93 179.07 20.93 186.21 20.93 193.36 20.93 200.5 20.93 207.64 28.07 207.64 28.07 214.79 28.07 221.93 28.07 229.07 35.21 229.07 35.21 236.21 42.36 236.21 42.36 243.36 42.36 250.5 49.5 250.5 49.5 257.64 49.5 264.79 56.64 264.79 63.79 264.79 70.93 264.79 70.93 271.93 78.07 271.93 85.21 271.93 92.36 271.93 99.5 271.93 106.64 271.93 113.79 271.93 120.93 271.93 128.07 271.93 135.21 271.93 142.36 271.93 149.5 271.93 149.5 264.79 156.64 264.79 156.64 257.64 149.5 257.64"/>
  </g>
  <g>
    <polygon class="uuid-27c760cf-0d56-4434-9458-e0602a71bc89" points="106.64 286.21 99.5 286.21 92.36 286.21 92.36 279.07 85.21 279.07 78.07 279.07 70.93 279.07 63.79 279.07 56.64 279.07 56.64 271.93 49.5 271.93 42.36 271.93 42.36 279.07 49.5 279.07 49.5 286.21 56.64 286.21 63.79 286.21 63.79 293.36 70.93 293.36 78.07 293.36 85.21 293.36 92.36 293.36 99.5 293.36 106.64 293.36 113.79 293.36 113.79 286.21 106.64 286.21"/>
    <polygon class="uuid-27c760cf-0d56-4434-9458-e0602a71bc89" points="42.36 257.64 35.21 257.64 35.21 250.5 28.07 250.5 28.07 257.64 28.07 264.79 35.21 264.79 35.21 271.93 42.36 271.93 42.36 264.79 42.36 257.64"/>
    <polygon class="uuid-27c760cf-0d56-4434-9458-e0602a71bc89" points="28.07 236.21 20.93 236.21 20.93 243.36 20.93 250.5 28.07 250.5 28.07 243.36 28.07 236.21"/>
    <rect class="uuid-27c760cf-0d56-4434-9458-e0602a71bc89" x="13.79" y="229.07" width="7.14" height="7.14"/>
  </g>
  <g>
    <rect class="uuid-2db31549-e2c3-45d0-afa1-f2350ed998c8" x="156.62" y="72.08" width="7.14" height="7.14"/>
    <rect class="uuid-2db31549-e2c3-45d0-afa1-f2350ed998c8" x="149.48" y="57.8" width="7.14" height="7.14"/>
    <polygon class="uuid-2db31549-e2c3-45d0-afa1-f2350ed998c8" points="149.48 43.51 142.34 43.51 142.34 50.65 142.34 57.8 149.48 57.8 149.48 50.65 149.48 43.51"/>
    <rect class="uuid-2db31549-e2c3-45d0-afa1-f2350ed998c8" x="135.19" y="36.37" width="7.15" height="7.14"/>
    <rect class="uuid-2db31549-e2c3-45d0-afa1-f2350ed998c8" x="128.05" y="29.22" width="7.14" height="7.15"/>
    <rect class="uuid-2db31549-e2c3-45d0-afa1-f2350ed998c8" x="120.91" y="22.08" width="7.14" height="7.14"/>
  </g>
  <g>
    <rect class="uuid-132ff85d-483c-45a8-9809-8cd512589cd6" x="128.05" y="7.8" width="7.14" height="7.14"/>
    <rect class="uuid-132ff85d-483c-45a8-9809-8cd512589cd6" x="135.19" y="14.94" width="7.15" height="7.14"/>
    <rect class="uuid-132ff85d-483c-45a8-9809-8cd512589cd6" x="156.62" y="36.37" width="7.14" height="7.14"/>
    <rect class="uuid-132ff85d-483c-45a8-9809-8cd512589cd6" x="149.48" y="43.51" width="7.14" height="7.14"/>
    <rect class="uuid-132ff85d-483c-45a8-9809-8cd512589cd6" x="149.48" y="29.22" width="7.14" height="7.15"/>
    <rect class="uuid-132ff85d-483c-45a8-9809-8cd512589cd6" x="142.34" y="36.37" width="7.14" height="7.14"/>
    <rect class="uuid-132ff85d-483c-45a8-9809-8cd512589cd6" x="128.05" y="43.51" width="7.14" height="7.14"/>
    <rect class="uuid-132ff85d-483c-45a8-9809-8cd512589cd6" x="128.05" y="22.08" width="7.14" height="7.14"/>
    <rect class="uuid-132ff85d-483c-45a8-9809-8cd512589cd6" x="120.91" y="50.65" width="7.14" height="7.15"/>
    <rect class="uuid-132ff85d-483c-45a8-9809-8cd512589cd6" x="120.91" y="36.37" width="7.14" height="7.14"/>
    <rect class="uuid-132ff85d-483c-45a8-9809-8cd512589cd6" x="120.91" y="14.94" width="7.14" height="7.14"/>
    <rect class="uuid-132ff85d-483c-45a8-9809-8cd512589cd6" x="113.76" y="43.51" width="7.15" height="7.14"/>
  </g>
  <g>
    <polygon class="uuid-7bbfb377-bc8f-4c6f-8c30-4bb0dcae90f6" points="163.76 79.22 156.62 79.22 156.62 86.37 163.76 86.37 170.91 86.37 170.91 79.22 163.76 79.22"/>
    <polygon class="uuid-7bbfb377-bc8f-4c6f-8c30-4bb0dcae90f6" points="156.62 64.94 149.48 64.94 149.48 57.8 142.34 57.8 142.34 64.94 142.34 72.08 149.48 72.08 149.48 79.22 156.62 79.22 156.62 72.08 156.62 64.94"/>
    <polygon class="uuid-7bbfb377-bc8f-4c6f-8c30-4bb0dcae90f6" points="142.34 43.51 135.19 43.51 135.19 50.65 135.19 57.8 142.34 57.8 142.34 50.65 142.34 43.51"/>
    <rect class="uuid-7bbfb377-bc8f-4c6f-8c30-4bb0dcae90f6" x="128.05" y="36.37" width="7.14" height="7.14"/>
    <polygon class="uuid-7bbfb377-bc8f-4c6f-8c30-4bb0dcae90f6" points="120.91 29.22 120.91 22.08 113.76 22.08 106.62 22.08 106.62 29.22 113.76 29.22 113.76 36.37 120.91 36.37 128.05 36.37 128.05 29.22 120.91 29.22"/>
  </g>
  <g>
    <polygon class="uuid-fe3879e2-3510-429a-a36e-9690a8b04000" points="135.21 114.94 135.19 114.94 128.07 114.94 128.05 114.94 120.91 114.94 120.91 122.08 128.05 122.08 128.07 122.08 135.19 122.08 135.21 122.08 142.34 122.08 142.34 121.93 142.34 114.94 135.21 114.94"/>
    <polygon class="uuid-fe3879e2-3510-429a-a36e-9690a8b04000" points="63.76 114.94 56.62 114.94 56.62 122.08 63.76 122.08 70.91 122.08 78.05 122.08 78.05 114.94 70.91 114.94 63.76 114.94"/>
  </g>
  <g>
    <rect class="uuid-f7fc680f-8cc3-4c75-bf4a-c6a980182385" x="85.19" y="14.94" width="7.15" height="7.14"/>
    <polygon class="uuid-f7fc680f-8cc3-4c75-bf4a-c6a980182385" points="70.91 22.08 70.91 29.22 63.76 29.22 63.76 36.37 56.62 36.37 56.62 43.51 49.48 43.51 49.48 50.65 49.48 57.8 42.34 57.8 42.34 64.94 42.34 72.08 49.48 72.08 49.48 64.94 56.62 64.94 56.62 57.8 56.62 50.65 63.76 50.65 63.76 43.51 70.91 43.51 70.91 36.37 78.05 36.37 78.05 29.22 85.19 29.22 85.19 22.08 78.05 22.08 70.91 22.08"/>
    <polygon class="uuid-f7fc680f-8cc3-4c75-bf4a-c6a980182385" points="35.21 79.07 35.19 79.07 35.19 79.22 42.34 79.22 42.34 72.08 35.21 72.08 35.21 79.07"/>
  </g>
  <g>
    <rect class="uuid-fdbac2d7-bbe0-40aa-b4da-9d8c29aee4b2" x="120.91" y="43.51" width="7.14" height="7.14"/>
    <rect class="uuid-fdbac2d7-bbe0-40aa-b4da-9d8c29aee4b2" x="149.48" y="36.37" width="7.14" height="7.14"/>
    <rect class="uuid-fdbac2d7-bbe0-40aa-b4da-9d8c29aee4b2" x="128.05" y="14.94" width="7.14" height="7.14"/>
    <path class="uuid-fdbac2d7-bbe0-40aa-b4da-9d8c29aee4b2" d="M163.76,107.8h-7.14v7.14h-7.14v-7.14h-7.14v-14.29h-14.27v6.99h-.02v.15h-7.12v6.99h-.02v.16h-7.15v-7.15h-7.14v-7.14h-14.26v6.99h-.02v.15h-7.13v6.99h-.02v.16h-14.28v-7.15h-7.15v-7.14h-7.12v6.99h-.02v.15h-7.12v14.14h-.02v.15h-21.43v21.43h7.14v14.28h14.29v-14.28h7.14v-7.15h7.14v7.15h7.15v7.14h14.28v-7.14h7.15v-7.15h14.28v7.15h7.14v7.14h7.15v-7.14h7.14v-7.15h14.29v14.29h7.14v7.14h7.14v-7.14h7.14v-14.29h7.15v-21.42h-7.15ZM78.05,122.08h-21.43v-7.14h21.43v7.14ZM142.34,121.93v.15h-21.43v-7.14h21.43v6.99Z"/>
  </g>
  <g>
    <g>
      <polygon class="uuid-dc46eb95-e7bf-40ef-92c9-40df7f7be09a" points="185.21 157.64 185.21 150.5 185.21 143.36 178.07 143.36 178.07 136.21 170.93 136.21 163.79 136.21 163.79 143.36 163.76 143.36 163.76 143.51 156.64 143.51 156.62 143.51 156.62 150.5 156.62 150.65 149.5 150.65 149.5 157.64 156.64 157.64 163.79 157.64 163.79 150.5 170.93 150.5 178.07 150.5 178.07 157.64 178.07 164.79 178.07 171.93 185.21 171.93 185.21 164.79 185.21 157.64"/>
      <polygon class="uuid-dc46eb95-e7bf-40ef-92c9-40df7f7be09a" points="185.21 171.93 185.21 179.07 185.21 186.21 185.21 193.36 185.21 200.5 185.21 207.64 185.21 214.79 185.21 221.93 192.36 221.93 192.36 214.79 192.36 207.64 192.36 200.5 192.36 193.36 192.36 186.21 192.36 179.07 192.36 171.93 185.21 171.93"/>
      <polygon class="uuid-dc46eb95-e7bf-40ef-92c9-40df7f7be09a" points="178.07 229.07 178.07 236.21 185.21 236.21 185.21 229.07 185.21 221.93 178.07 221.93 178.07 229.07"/>
      <polygon class="uuid-dc46eb95-e7bf-40ef-92c9-40df7f7be09a" points="170.93 243.36 170.93 250.5 178.07 250.5 178.07 243.36 178.07 236.21 170.93 236.21 170.93 243.36"/>
      <polygon class="uuid-dc46eb95-e7bf-40ef-92c9-40df7f7be09a" points="85.21 150.5 85.21 143.36 92.36 143.36 92.36 136.21 99.5 136.21 99.5 143.36 106.64 143.36 113.76 143.36 113.76 136.37 106.64 136.37 106.62 136.37 106.62 136.21 106.62 129.22 99.5 129.22 99.48 129.22 92.36 129.22 92.34 129.22 92.34 136.21 92.34 136.37 85.21 136.37 85.19 136.37 85.19 143.36 85.19 143.51 78.07 143.51 78.05 143.51 70.93 143.51 70.93 150.5 78.07 150.5 85.21 150.5"/>
      <polygon class="uuid-dc46eb95-e7bf-40ef-92c9-40df7f7be09a" points="120.93 143.36 128.07 143.36 128.07 136.21 135.21 136.21 135.21 143.36 142.34 143.36 142.34 136.37 142.34 136.21 142.34 129.22 135.21 129.22 135.19 129.22 128.07 129.22 128.05 129.22 128.05 136.21 128.05 136.37 120.93 136.37 120.91 136.37 120.91 143.36 120.91 143.51 113.79 143.51 113.79 150.5 120.93 150.5 120.93 143.36"/>
      <polygon class="uuid-dc46eb95-e7bf-40ef-92c9-40df7f7be09a" points="163.79 257.64 156.64 257.64 156.64 264.79 149.5 264.79 149.5 271.93 142.36 271.93 135.21 271.93 128.07 271.93 120.93 271.93 113.79 271.93 106.64 271.93 99.5 271.93 92.36 271.93 85.21 271.93 78.07 271.93 70.93 271.93 70.93 264.79 63.79 264.79 56.64 264.79 49.5 264.79 49.5 257.64 49.5 250.5 42.36 250.5 42.36 243.36 42.36 236.21 35.21 236.21 35.21 229.07 28.07 229.07 28.07 221.93 28.07 214.79 28.07 207.64 20.93 207.64 20.93 200.5 20.93 193.36 20.93 186.21 20.93 179.07 28.07 179.07 28.07 171.93 28.07 164.79 28.07 157.64 35.21 157.64 35.21 164.79 42.36 164.79 42.36 157.64 49.5 157.64 49.5 150.5 56.64 150.5 56.64 143.36 63.79 143.36 70.91 143.36 70.91 136.37 63.79 136.37 63.76 136.37 63.76 136.21 63.76 129.22 56.64 129.22 56.62 129.22 56.62 136.21 56.62 136.37 49.5 136.37 49.48 136.37 49.48 143.51 49.48 150.5 49.48 150.65 42.36 150.65 42.34 150.65 35.21 150.65 35.19 150.65 35.19 150.5 35.19 143.51 35.19 143.36 35.19 136.37 28.07 136.37 28.05 136.37 28.05 136.21 20.93 136.21 20.93 143.36 13.79 143.36 13.79 150.5 13.79 157.64 13.79 164.79 13.79 171.93 6.64 171.93 6.64 179.07 6.64 186.21 6.64 193.36 6.64 200.5 6.64 207.64 6.64 214.79 6.64 221.93 13.79 221.93 13.79 229.07 20.93 229.07 20.93 236.21 28.07 236.21 28.07 243.36 28.07 250.5 35.21 250.5 35.21 257.64 42.36 257.64 42.36 264.79 42.36 271.93 49.5 271.93 56.64 271.93 56.64 279.07 63.79 279.07 70.93 279.07 78.07 279.07 85.21 279.07 92.36 279.07 92.36 286.21 99.5 286.21 106.64 286.21 113.79 286.21 113.79 293.36 120.93 293.36 128.07 293.36 135.21 293.36 135.21 286.21 142.36 286.21 149.5 286.21 149.5 279.07 156.64 279.07 156.64 271.93 163.79 271.93 163.79 264.79 170.93 264.79 170.93 257.64 170.93 250.5 163.79 250.5 163.79 257.64"/>
    </g>
    <g>
      <rect class="uuid-dc46eb95-e7bf-40ef-92c9-40df7f7be09a" x="142.36" y="143.51" width="7.12" height="6.99"/>
      <rect class="uuid-dc46eb95-e7bf-40ef-92c9-40df7f7be09a" x="120.93" y="93.51" width="7.12" height="6.99"/>
      <rect class="uuid-dc46eb95-e7bf-40ef-92c9-40df7f7be09a" x="113.79" y="100.65" width="7.12" height="6.99"/>
      <rect class="uuid-dc46eb95-e7bf-40ef-92c9-40df7f7be09a" x="106.64" y="93.51" width="7.12" height="6.99"/>
      <polygon class="uuid-dc46eb95-e7bf-40ef-92c9-40df7f7be09a" points="99.48 86.37 92.36 86.37 92.36 93.36 99.5 93.36 106.62 93.36 106.62 86.37 99.5 86.37 99.48 86.37"/>
      <polygon class="uuid-dc46eb95-e7bf-40ef-92c9-40df7f7be09a" points="135.19 86.37 128.07 86.37 128.07 93.36 135.21 93.36 142.34 93.36 142.34 86.37 135.21 86.37 135.19 86.37"/>
      <rect class="uuid-dc46eb95-e7bf-40ef-92c9-40df7f7be09a" x="85.21" y="93.51" width="7.13" height="6.99"/>
      <polygon class="uuid-dc46eb95-e7bf-40ef-92c9-40df7f7be09a" points="78.05 100.65 70.93 100.65 70.93 107.64 78.07 107.64 85.19 107.64 85.19 100.65 78.07 100.65 78.05 100.65"/>
      <rect class="uuid-dc46eb95-e7bf-40ef-92c9-40df7f7be09a" x="63.79" y="93.51" width="7.12" height="6.99"/>
      <polygon class="uuid-dc46eb95-e7bf-40ef-92c9-40df7f7be09a" points="56.62 86.21 56.62 86.37 49.5 86.37 49.5 93.36 49.48 93.36 49.48 93.51 42.36 93.51 42.36 100.5 42.34 100.5 42.34 100.65 35.21 100.65 35.19 100.65 28.07 100.65 28.07 107.64 35.21 107.64 35.21 114.79 42.36 114.79 49.48 114.79 49.48 107.8 49.48 107.64 49.48 100.65 49.5 100.65 49.5 100.5 56.62 100.5 56.62 93.51 56.64 93.51 56.64 93.36 63.76 93.36 63.76 86.37 63.76 86.21 56.64 86.21 56.62 86.21"/>
      <rect class="uuid-dc46eb95-e7bf-40ef-92c9-40df7f7be09a" x="135.19" y="29.22" width="7.15" height="7.15"/>
      <rect class="uuid-dc46eb95-e7bf-40ef-92c9-40df7f7be09a" x="113.76" y="14.94" width="7.15" height="7.14"/>
      <polygon class="uuid-dc46eb95-e7bf-40ef-92c9-40df7f7be09a" points="70.91 14.94 70.91 22.08 78.05 22.08 85.19 22.08 85.19 14.94 78.05 14.94 70.91 14.94"/>
      <rect class="uuid-dc46eb95-e7bf-40ef-92c9-40df7f7be09a" x="63.76" y="22.08" width="7.15" height="7.14"/>
      <rect class="uuid-dc46eb95-e7bf-40ef-92c9-40df7f7be09a" x="56.62" y="29.22" width="7.14" height="7.15"/>
      <rect class="uuid-dc46eb95-e7bf-40ef-92c9-40df7f7be09a" x="49.48" y="36.37" width="7.14" height="7.14"/>
      <polygon class="uuid-dc46eb95-e7bf-40ef-92c9-40df7f7be09a" points="106.62 7.8 99.48 7.8 92.34 7.8 85.19 7.8 85.19 14.94 92.34 14.94 99.48 14.94 106.62 14.94 113.76 14.94 113.76 7.8 106.62 7.8"/>
      <polygon class="uuid-dc46eb95-e7bf-40ef-92c9-40df7f7be09a" points="178.07 86.21 178.07 79.07 178.07 71.93 170.93 71.93 170.93 64.79 163.79 64.79 163.79 72.08 163.76 72.08 163.76 79.22 170.91 79.22 170.91 72.93 170.93 72.93 170.93 79.07 170.93 86.21 170.93 93.36 170.91 93.36 170.91 93.51 163.79 93.51 163.76 93.51 156.64 93.51 156.64 100.5 156.62 100.5 156.62 100.65 149.5 100.65 149.48 100.65 149.48 100.5 149.48 93.51 142.36 93.51 142.36 100.5 142.36 107.64 149.5 107.64 149.5 114.79 149.48 114.94 156.62 114.94 156.62 114.79 156.62 107.8 156.64 107.8 156.64 107.64 163.79 107.64 163.79 100.5 170.93 100.5 178.07 100.5 178.07 107.64 185.21 107.64 185.21 100.5 185.21 93.36 185.21 86.21 178.07 86.21"/>
      <polygon class="uuid-dc46eb95-e7bf-40ef-92c9-40df7f7be09a" points="163.76 57.64 163.79 57.64 163.79 50.5 156.64 50.5 156.64 56.8 156.62 56.8 156.62 50.65 149.48 50.65 149.48 57.8 156.62 57.8 156.62 64.94 156.62 72.08 163.76 72.08 163.76 64.94 163.76 57.64"/>
      <polygon class="uuid-dc46eb95-e7bf-40ef-92c9-40df7f7be09a" points="42.34 50.5 35.21 50.5 35.21 57.64 28.07 57.64 28.07 64.79 28.07 71.93 20.93 71.93 20.93 79.07 13.79 79.07 13.79 86.21 13.79 93.36 13.79 100.5 13.79 107.64 20.93 107.64 20.93 100.5 28.05 100.5 28.05 93.51 20.93 93.51 20.91 93.51 20.91 93.36 20.91 86.37 20.93 86.37 20.93 86.21 28.05 86.21 28.07 86.21 28.07 79.22 35.19 79.22 35.19 79.07 35.19 72.08 35.19 72 42.34 72.08 42.34 64.94 42.34 57.8 49.48 57.8 49.48 50.65 49.48 43.51 42.34 43.51 42.34 50.5"/>
    </g>
  </g>
  <g>
    <rect class="uuid-2db31549-e2c3-45d0-afa1-f2350ed998c8" x="113.79" y="93.51" width="7.12" height="6.99"/>
    <rect class="uuid-2db31549-e2c3-45d0-afa1-f2350ed998c8" x="113.79" y="86.37" width="7.12" height="6.99"/>
    <rect class="uuid-2db31549-e2c3-45d0-afa1-f2350ed998c8" x="106.64" y="86.37" width="7.12" height="6.99"/>
    <path class="uuid-2db31549-e2c3-45d0-afa1-f2350ed998c8" d="M163.76,86.37h-7.14v-7.15h-7.14v-7.14h-7.14v-14.28h-7.15v-7.15h-7.14v7.15h-7.14v-7.15h-7.15v-7.14h7.15v-7.14h-7.15v-7.15h-7.14v-7.14h7.14v-7.14h-21.42v7.14h-7.15v7.14h-7.14v7.15h-7.14v7.14h-7.15v7.14h-7.14v14.29h-7.14v7.14h-7.14v7.14h-14.27v6.99h-.02v.16h-7.12v6.99h7.14v7.14h14.27v-6.99h.02v-.15h7.12v-6.99h.02v-.16h14.29v7.15h7.14v7.14h14.26v-6.99h.02v-.15h7.13v-6.99h.02v-.16h28.57v7.15h7.12v-6.99h.02v-.16h14.29v7.15h7.14v7.14h7.12v-6.99h.02v-.15h14.27v-6.99h-7.15ZM106.64,72.08v6.99h-.02v.15h-7.14v-7.14h.02v-.15h7.14v.15Z"/>
    <rect class="uuid-2db31549-e2c3-45d0-afa1-f2350ed998c8" x="99.5" y="71.08" width="7.12" height="7.99"/>
  </g>
</svg>